<?xml version="1.0" standalone="no"?>
<!DOCTYPE svg PUBLIC "-//W3C//DTD SVG 20010904//EN"
 "http://www.w3.org/TR/2001/REC-SVG-20010904/DTD/svg10.dtd">
<svg version="1.0" xmlns="http://www.w3.org/2000/svg"
 width="300.000000pt" height="300.000000pt" viewBox="0 0 300.000000 300.000000"
 preserveAspectRatio="xMidYMid meet">
<metadata>
Created by potrace 1.10, written by Peter Selinger 2001-2011
</metadata>
<g transform="translate(0.000000,300.000000) scale(0.100000,-0.100000)"
fill="#000000" stroke="none">
<path d="M1492 2928 c-6 -7 -20 -39 -32 -70 -31 -83 -114 -242 -175 -334 -30
-44 -130 -180 -223 -302 -236 -308 -291 -398 -336 -556 -48 -165 -41 -349 18
-497 l25 -59 -31 17 c-16 10 -58 48 -93 85 -116 122 -180 303 -157 438 7 36
15 75 18 88 5 18 2 22 -18 22 -61 0 -229 -149 -312 -278 -53 -82 -95 -176
-122 -278 -29 -106 -27 -368 4 -484 43 -162 186 -405 237 -405 25 0 24 10 -10
104 -23 65 -26 86 -23 170 2 78 8 105 28 146 80 159 270 115 375 -87 17 -32
35 -58 42 -58 7 0 17 19 23 43 37 145 115 205 232 177 51 -13 221 -117 310
-192 101 -84 160 -212 192 -417 28 -173 44 -170 75 14 44 259 103 352 317 496
122 82 161 99 226 99 94 0 153 -55 183 -170 16 -63 36 -62 66 2 57 123 138
188 236 188 108 0 166 -81 171 -241 3 -83 0 -105 -22 -170 -15 -41 -29 -82
-33 -91 -11 -35 35 -19 74 26 79 91 157 247 192 386 95 377 -60 796 -365 989
-26 17 -59 31 -72 31 -21 0 -24 -3 -18 -27 3 -16 11 -54 16 -85 30 -169 -78
-402 -238 -516 -17 -13 -32 -20 -32 -16 0 3 11 37 25 75 67 186 54 403 -35
596 -51 109 -98 181 -283 425 -238 315 -319 445 -393 626 -41 100 -47 108 -62
90z"/>
</g>
</svg>
