<?xml version="1.0" standalone="no"?>
<!DOCTYPE svg PUBLIC "-//W3C//DTD SVG 20010904//EN"
 "http://www.w3.org/TR/2001/REC-SVG-20010904/DTD/svg10.dtd">
<svg version="1.0" xmlns="http://www.w3.org/2000/svg"
 width="300.000000pt" height="300.000000pt" viewBox="0 0 300.000000 300.000000"
 preserveAspectRatio="xMidYMid meet">
<metadata>
Created by potrace 1.10, written by Peter Selinger 2001-2011
</metadata>
<g transform="translate(0.000000,300.000000) scale(0.100000,-0.100000)"
fill="#000000" stroke="none">
<path d="M1255 2829 c-110 -27 -197 -61 -286 -113 -132 -78 -245 -222 -264
-340 -4 -22 -12 -47 -17 -53 -8 -10 -54 -13 -169 -13 -88 0 -159 -4 -159 -9 0
-5 14 -53 31 -107 17 -55 32 -106 32 -114 2 -13 -30 -16 -210 -20 l-213 -5
471 -705 c259 -388 485 -720 503 -738 58 -62 507 -457 523 -460 8 -2 18 0 22
5 3 4 42 39 86 78 44 38 82 72 85 75 3 3 75 66 160 141 85 76 167 150 181 165
35 38 479 699 860 1279 l106 160 -214 3 c-198 2 -214 4 -209 20 5 16 53 178
63 215 5 16 -7 17 -149 17 -108 0 -159 4 -170 13 -8 6 -21 34 -27 61 -52 214
-260 380 -560 447 -121 26 -364 25 -476 -2z"/>
</g>
</svg>
