<?xml version="1.0" standalone="no"?>
<!DOCTYPE svg PUBLIC "-//W3C//DTD SVG 20010904//EN"
 "http://www.w3.org/TR/2001/REC-SVG-20010904/DTD/svg10.dtd">
<svg version="1.0" xmlns="http://www.w3.org/2000/svg"
 width="300.000000pt" height="301.000000pt" viewBox="0 0 300.000000 301.000000"
 preserveAspectRatio="xMidYMid meet">
<metadata>
Created by potrace 1.10, written by Peter Selinger 2001-2011
</metadata>
<g transform="translate(0.000000,301.000000) scale(0.100000,-0.100000)"
fill="#000000" stroke="none">
<path d="M1441 2948 c-38 -77 -55 -165 -46 -235 5 -43 15 -63 51 -105 46 -54
69 -112 57 -144 -3 -11 -19 -31 -35 -47 -16 -15 -36 -46 -45 -68 l-16 -41 -68
172 c-37 94 -71 175 -74 178 -7 6 -5 -47 14 -305 3 -51 3 -89 0 -85 -4 4 -77
131 -164 282 -86 151 -161 279 -166 284 -9 10 34 -137 122 -418 32 -104 57
-191 55 -193 -2 -2 -54 59 -115 136 -112 141 -141 172 -127 135 4 -10 34 -88
68 -172 33 -84 58 -155 56 -158 -3 -2 -20 23 -39 57 -99 177 -130 199 -271
199 -111 0 -169 26 -225 100 -21 27 -41 49 -45 49 -14 1 -8 -48 12 -101 42
-109 127 -188 204 -188 43 0 93 -29 116 -65 22 -35 82 -215 72 -215 -3 0 -84
34 -179 75 -96 41 -178 75 -183 75 -9 0 41 -48 219 -209 50 -46 90 -85 88 -87
-1 -2 -52 10 -113 27 -275 77 -548 148 -552 144 -3 -2 4 -8 15 -12 11 -5 124
-64 252 -133 l232 -125 -133 -5 -133 -5 50 -23 c28 -13 108 -49 180 -80 71
-31 122 -58 113 -60 -9 -2 -68 13 -130 33 -144 47 -160 45 -244 -34 -77 -73
-137 -94 -245 -89 -60 3 -67 1 -52 -10 68 -51 205 -97 265 -89 21 3 60 19 86
35 78 50 89 50 197 -4 l96 -48 -148 -59 c-81 -32 -150 -61 -153 -64 -3 -3 71
-3 165 -1 l170 5 -285 -143 c-157 -79 -281 -143 -276 -143 5 -1 151 35 324 79
173 45 319 79 323 78 5 -2 -47 -52 -116 -112 -68 -60 -131 -116 -140 -126 -10
-12 36 2 142 40 87 32 169 61 183 65 25 8 25 7 6 -13 -10 -12 -69 -46 -130
-76 -130 -64 -136 -71 -136 -184 0 -100 -18 -134 -98 -187 -33 -22 -61 -44
-61 -49 -2 -16 95 1 154 28 96 44 121 67 145 141 25 76 49 98 123 115 28 7 60
17 70 22 10 5 21 8 23 5 3 -2 -18 -53 -46 -113 -29 -60 -56 -120 -61 -134 -5
-14 49 34 127 115 75 77 133 131 129 120 -16 -49 -165 -553 -171 -580 -3 -16
52 74 123 200 71 127 144 255 162 285 l32 55 -6 -70 c-3 -38 -10 -111 -16
-160 -19 -160 -13 -157 86 40 85 170 90 178 93 142 2 -21 -6 -66 -17 -100 -23
-68 -27 -141 -8 -174 7 -12 33 -37 58 -57 69 -52 83 -89 76 -205 -2 -53 -8
-104 -12 -115 -7 -16 -6 -17 15 -6 25 13 79 123 105 214 25 85 17 142 -28 204
-46 61 -47 96 -8 177 28 58 29 59 39 35 5 -14 35 -90 66 -170 31 -79 60 -147
63 -150 3 -3 4 63 1 145 -2 83 -3 159 0 169 3 13 23 -17 63 -95 80 -153 222
-410 225 -406 1 1 -29 124 -67 272 -38 149 -69 277 -69 285 1 14 57 -42 172
-173 28 -31 53 -56 55 -53 2 2 -29 83 -68 180 -39 98 -68 180 -65 183 12 12
68 -53 108 -125 56 -102 90 -123 213 -131 90 -6 95 -7 130 -41 20 -19 46 -53
58 -75 l22 -40 3 43 c4 58 -20 138 -60 194 -44 61 -79 88 -125 94 -56 8 -90
23 -106 48 -18 27 -58 148 -52 154 3 3 67 -23 144 -56 76 -34 143 -62 147 -62
5 0 -51 58 -123 129 -73 71 -133 131 -133 135 0 3 6 3 13 1 17 -6 468 -139
541 -160 32 -9 60 -15 62 -13 1 2 -105 66 -236 142 -132 76 -240 140 -240 143
0 2 69 1 153 -2 l152 -6 -115 56 c-63 31 -137 66 -163 77 -26 11 -46 23 -44
25 3 2 47 -6 98 -17 138 -31 189 -17 249 71 46 67 90 83 213 76 l92 -5 -33 27
c-72 61 -209 107 -293 99 -37 -4 -58 -14 -96 -45 -26 -22 -56 -42 -65 -46 -22
-8 -74 7 -117 34 l-35 21 150 65 c82 36 151 67 154 69 2 3 -62 4 -142 2 -111
-2 -144 0 -135 8 7 7 112 67 234 135 123 67 221 124 219 126 -2 2 -109 -23
-237 -57 -129 -34 -249 -65 -266 -70 -18 -5 -33 -7 -33 -5 0 2 53 48 118 103
157 133 160 137 65 100 -161 -62 -294 -107 -288 -98 4 6 39 28 80 51 40 22 90
58 110 81 41 44 39 30 18 196 -8 65 19 124 88 193 l59 59 -30 0 c-43 0 -171
-73 -218 -124 -38 -42 -62 -106 -62 -169 0 -40 -30 -68 -121 -111 -49 -23 -89
-42 -89 -40 0 3 50 115 105 234 29 63 56 125 59 137 6 17 -149 -135 -250 -246
-8 -8 -16 -12 -19 -10 -3 3 33 136 80 295 47 159 85 294 85 299 0 10 -30 -39
-225 -368 -48 -81 -89 -146 -91 -144 -3 2 5 77 16 167 12 89 19 164 17 166 -2
2 -39 -75 -83 -172 -81 -179 -101 -202 -65 -71 37 129 27 163 -82 285 -77 86
-100 141 -101 249 -1 40 -2 73 -3 73 -1 0 -16 -28 -32 -62z m296 -756 c116
-39 210 -87 290 -146 74 -54 101 -97 83 -131 -16 -30 -149 -145 -325 -280 -77
-59 -140 -111 -140 -116 0 -4 45 -45 100 -91 210 -176 345 -319 345 -368 0
-32 -61 -108 -119 -148 -197 -139 -515 -171 -798 -81 -26 8 -33 16 -33 36 0
25 1 25 18 10 21 -20 64 -22 113 -6 19 6 40 13 48 15 18 6 -3 29 -76 86 -44
34 -56 39 -64 27 -6 -9 -9 4 -9 41 0 83 7 88 76 55 69 -32 65 -29 138 -79 32
-22 64 -52 72 -68 14 -26 19 -28 77 -28 169 0 342 62 360 129 9 36 -33 104
-116 186 -81 80 -229 205 -242 205 -4 0 -80 -52 -168 -117 -219 -158 -238
-171 -207 -143 14 12 96 80 183 152 86 72 157 133 157 137 -1 3 -40 35 -88 71
-371 279 -472 367 -472 413 0 89 142 189 342 241 131 35 131 35 253 32 93 -2
125 -8 202 -34z m-654 -1279 c-7 -2 -19 -2 -25 0 -7 3 -2 5 12 5 14 0 19 -2
13 -5z"/>
<path d="M1450 2128 c-213 -22 -369 -122 -316 -203 9 -13 60 -59 113 -102 118
-96 323 -256 341 -267 24 -15 380 322 383 363 4 53 -31 91 -126 136 -125 60
-266 86 -395 73z"/>
<path d="M1280 1045 c0 -18 24 -30 40 -20 8 5 8 11 -1 21 -15 19 -39 18 -39
-1z"/>
</g>
</svg>
