<?xml version="1.0" encoding="UTF-8" standalone="no"?>
<!DOCTYPE svg PUBLIC "-//W3C//DTD SVG 1.1//EN" "http://www.w3.org/Graphics/SVG/1.1/DTD/svg11.dtd">
<svg width="100%" height="100%" viewBox="0 0 1670 300" version="1.1" xmlns="http://www.w3.org/2000/svg" xmlns:xlink="http://www.w3.org/1999/xlink" xml:space="preserve" xmlns:serif="http://www.serif.com/" style="fill-rule:evenodd;clip-rule:evenodd;stroke-linejoin:round;stroke-miterlimit:2;">
    <g transform="matrix(0.941591,4.86173e-63,2.91704e-62,1.09807,1065.01,-29.4221)">
        <path d="M323.885,122.417L323.885,26.794L435.403,26.794L435.403,54.115L403.542,54.115L355.746,54.115L355.746,122.417L323.885,122.417ZM642.512,122.417L610.651,122.417L610.651,95.096L610.651,54.115L530.994,54.115L530.994,26.794L642.512,26.794L642.512,122.417ZM530.994,300L530.994,272.679L562.855,272.679L610.651,272.679L610.651,204.378L642.512,204.378L642.512,300L530.994,300ZM323.885,204.378L355.746,204.378L355.746,231.699L355.746,272.679L435.403,272.679L435.403,300L323.885,300L323.885,204.378Z"/>
    </g>
    <g transform="matrix(0.941591,4.86173e-63,2.91704e-62,1.09807,722.523,-29.4223)">
        <path d="M323.885,122.417L323.885,26.794L435.403,26.794L435.403,54.115L403.542,54.115L355.746,54.115L355.746,122.417L323.885,122.417ZM642.512,122.417L610.651,122.417L610.651,95.096L610.651,54.115L530.994,54.115L530.994,26.794L642.512,26.794L642.512,122.417ZM530.994,300L530.994,272.679L562.855,272.679L610.651,272.679L610.651,204.378L642.512,204.378L642.512,300L530.994,300ZM323.885,204.378L355.746,204.378L355.746,231.699L355.746,272.679L435.403,272.679L435.403,300L323.885,300L323.885,204.378Z"/>
    </g>
    <g transform="matrix(0.941591,2.43087e-63,1.94469e-62,1.09807,380.025,-29.4221)">
        <path d="M323.885,122.417L323.885,26.794L435.403,26.794L435.403,54.115L403.542,54.115L355.746,54.115L355.746,122.417L323.885,122.417ZM642.512,122.417L610.651,122.417L610.651,95.096L610.651,54.115L530.994,54.115L530.994,26.794L642.512,26.794L642.512,122.417ZM530.994,300L530.994,272.679L562.855,272.679L610.651,272.679L610.651,204.378L642.512,204.378L642.512,300L530.994,300ZM323.885,204.378L355.746,204.378L355.746,231.699L355.746,272.679L435.403,272.679L435.403,300L323.885,300L323.885,204.378Z"/>
    </g>
    <g transform="matrix(0.941591,-6.07716e-64,9.72346e-63,1.09807,37.5286,-29.4221)">
        <path d="M323.885,122.417L323.885,26.794L435.403,26.794L435.403,54.115L403.542,54.115L355.746,54.115L355.746,122.417L323.885,122.417ZM642.512,122.417L610.651,122.417L610.651,95.096L610.651,54.115L530.994,54.115L530.994,26.794L642.512,26.794L642.512,122.417ZM530.994,300L530.994,272.679L562.855,272.679L610.651,272.679L610.651,204.378L642.512,204.378L642.512,300L530.994,300ZM323.885,204.378L355.746,204.378L355.746,231.699L355.746,272.679L435.403,272.679L435.403,300L323.885,300L323.885,204.378Z"/>
    </g>
    <g transform="matrix(0.72681,0,1.64215e-47,0.843082,-1.77636e-15,47.0754)">
        <path d="M412.784,-55.837L412.784,300L0,300L0,-55.837L412.784,-55.837ZM371.508,-20.253L41.276,-20.253L41.276,264.416L371.508,264.416L371.508,-20.253Z"/>
        <g transform="matrix(1.29551,-7.20827e-64,-2.94275e-47,1.30245,-419.597,-90.7358)">
            <path d="M323.885,122.417L323.885,26.794L435.403,26.794L435.403,54.115L403.542,54.115L355.746,54.115L355.746,122.417L323.885,122.417ZM642.512,122.417L610.651,122.417L610.651,95.096L610.651,54.115L530.994,54.115L530.994,26.794L642.512,26.794L642.512,122.417ZM530.994,300L530.994,272.679L562.855,272.679L610.651,272.679L610.651,204.378L642.512,204.378L642.512,300L530.994,300ZM323.885,204.378L355.746,204.378L355.746,231.699L355.746,272.679L435.403,272.679L435.403,300L323.885,300L323.885,204.378Z"/>
        </g>
    </g>
</svg>
