<?xml version="1.0" encoding="UTF-8" standalone="no"?>
<!DOCTYPE svg PUBLIC "-//W3C//DTD SVG 1.1//EN" "http://www.w3.org/Graphics/SVG/1.1/DTD/svg11.dtd">
<svg width="100%" height="100%" viewBox="0 0 1670 300" version="1.1" xmlns="http://www.w3.org/2000/svg" xmlns:xlink="http://www.w3.org/1999/xlink" xml:space="preserve" xmlns:serif="http://www.serif.com/" style="fill-rule:evenodd;clip-rule:evenodd;stroke-linejoin:round;stroke-miterlimit:2;">
    <g transform="matrix(0.72681,-1.09476e-47,3.0106e-47,0.843082,1369.98,47.0754)">
        <path d="M412.784,-55.837L412.784,300L0,300L0,-55.837L412.784,-55.837ZM371.508,-20.253L41.276,-20.253L41.276,264.416L371.508,264.416L371.508,-20.253Z"/>
        <g transform="matrix(1.29551,1.68225e-47,-5.39503e-47,1.30245,-419.597,-90.7355)">
            <path d="M323.885,122.417L323.885,26.794L435.403,26.794L435.403,54.115L403.542,54.115L355.746,54.115L355.746,122.417L323.885,122.417ZM642.512,122.417L610.651,122.417L610.651,95.096L610.651,54.115L530.994,54.115L530.994,26.794L642.512,26.794L642.512,122.417ZM530.994,300L530.994,272.679L562.855,272.679L610.651,272.679L610.651,204.378L642.512,204.378L642.512,300L530.994,300ZM323.885,204.378L355.746,204.378L355.746,231.699L355.746,272.679L435.403,272.679L435.403,300L323.885,300L323.885,204.378Z"/>
        </g>
    </g>
    <g transform="matrix(0.72681,-1.09476e-47,3.0106e-47,0.843082,1027.49,47.0754)">
        <path d="M412.784,-55.837L412.784,300L0,300L0,-55.837L412.784,-55.837ZM371.508,-20.253L41.276,-20.253L41.276,264.416L371.508,264.416L371.508,-20.253Z"/>
        <g transform="matrix(1.29551,1.68225e-47,-5.39503e-47,1.30245,-419.597,-90.7358)">
            <path d="M323.885,122.417L323.885,26.794L435.403,26.794L435.403,54.115L403.542,54.115L355.746,54.115L355.746,122.417L323.885,122.417ZM642.512,122.417L610.651,122.417L610.651,95.096L610.651,54.115L530.994,54.115L530.994,26.794L642.512,26.794L642.512,122.417ZM530.994,300L530.994,272.679L562.855,272.679L610.651,272.679L610.651,204.378L642.512,204.378L642.512,300L530.994,300ZM323.885,204.378L355.746,204.378L355.746,231.699L355.746,272.679L435.403,272.679L435.403,300L323.885,300L323.885,204.378Z"/>
        </g>
    </g>
    <g transform="matrix(0.72681,-8.21073e-48,2.46322e-47,0.843082,684.992,47.0754)">
        <path d="M412.784,-55.837L412.784,300L0,300L0,-55.837L412.784,-55.837ZM371.508,-20.253L41.276,-20.253L41.276,264.416L371.508,264.416L371.508,-20.253Z"/>
        <g transform="matrix(1.29551,1.26169e-47,-4.41412e-47,1.30245,-419.597,-90.7355)">
            <path d="M323.885,122.417L323.885,26.794L435.403,26.794L435.403,54.115L403.542,54.115L355.746,54.115L355.746,122.417L323.885,122.417ZM642.512,122.417L610.651,122.417L610.651,95.096L610.651,54.115L530.994,54.115L530.994,26.794L642.512,26.794L642.512,122.417ZM530.994,300L530.994,272.679L562.855,272.679L610.651,272.679L610.651,204.378L642.512,204.378L642.512,300L530.994,300ZM323.885,204.378L355.746,204.378L355.746,231.699L355.746,272.679L435.403,272.679L435.403,300L323.885,300L323.885,204.378Z"/>
        </g>
    </g>
    <g transform="matrix(0.72681,-2.73691e-48,1.91584e-47,0.843082,342.496,47.0754)">
        <path d="M412.784,-55.837L412.784,300L0,300L0,-55.837L412.784,-55.837ZM371.508,-20.253L41.276,-20.253L41.276,264.416L371.508,264.416L371.508,-20.253Z"/>
        <path d="M0,-53.433L0,-55.837L2.789,-55.837L2.789,-54.651L1.376,-54.651L1.376,-53.433L0,-53.433ZM13.945,-55.837L13.945,-54.651L8.367,-54.651L8.367,-55.837L13.945,-55.837ZM25.102,-55.837L25.102,-54.651L19.523,-54.651L19.523,-55.837L25.102,-55.837ZM36.258,-55.837L36.258,-54.651L30.68,-54.651L30.68,-55.837L36.258,-55.837ZM47.415,-55.837L47.415,-54.651L41.836,-54.651L41.836,-55.837L47.415,-55.837ZM58.571,-55.837L58.571,-54.651L52.992,-54.651L52.992,-55.837L58.571,-55.837ZM69.727,-55.837L69.727,-54.651L64.148,-54.651L64.148,-55.837L69.727,-55.837ZM80.884,-55.837L80.884,-54.651L75.305,-54.651L75.305,-55.837L80.884,-55.837ZM92.04,-55.837L92.04,-54.651L86.462,-54.651L86.462,-55.837L92.04,-55.837ZM103.196,-55.837L103.196,-54.651L97.618,-54.651L97.618,-55.837L103.196,-55.837ZM114.352,-55.837L114.352,-54.651L108.774,-54.651L108.774,-55.837L114.352,-55.837ZM125.509,-55.837L125.509,-54.651L119.931,-54.651L119.931,-55.837L125.509,-55.837ZM136.665,-55.837L136.665,-54.651L131.087,-54.651L131.087,-55.837L136.665,-55.837ZM147.822,-55.837L147.822,-54.651L142.244,-54.651L142.244,-55.837L147.822,-55.837ZM158.977,-55.837L158.977,-54.651L153.399,-54.651L153.399,-55.837L158.977,-55.837ZM170.134,-55.837L170.134,-54.651L164.556,-54.651L164.556,-55.837L170.134,-55.837ZM181.29,-55.837L181.29,-54.651L175.712,-54.651L175.712,-55.837L181.29,-55.837ZM192.446,-55.837L192.446,-54.651L186.869,-54.651L186.869,-55.837L192.446,-55.837ZM203.603,-55.837L203.603,-54.651L198.025,-54.651L198.025,-55.837L203.603,-55.837ZM214.759,-55.837L214.759,-54.651L209.181,-54.651L209.181,-55.837L214.759,-55.837ZM225.916,-55.837L225.916,-54.651L220.338,-54.651L220.338,-55.837L225.916,-55.837ZM237.072,-55.837L237.072,-54.651L231.493,-54.651L231.493,-55.837L237.072,-55.837ZM248.228,-55.837L248.228,-54.651L242.65,-54.651L242.65,-55.837L248.228,-55.837ZM259.384,-55.837L259.384,-54.651L253.806,-54.651L253.806,-55.837L259.384,-55.837ZM270.541,-55.837L270.541,-54.651L264.962,-54.651L264.962,-55.837L270.541,-55.837ZM281.697,-55.837L281.697,-54.651L276.119,-54.651L276.119,-55.837L281.697,-55.837ZM292.854,-55.837L292.854,-54.651L287.275,-54.651L287.275,-55.837L292.854,-55.837ZM304.01,-55.837L304.01,-54.651L298.432,-54.651L298.432,-55.837L304.01,-55.837ZM315.166,-55.837L315.166,-54.651L309.588,-54.651L309.588,-55.837L315.166,-55.837ZM326.323,-55.837L326.323,-54.651L320.745,-54.651L320.745,-55.837L326.323,-55.837ZM337.479,-55.837L337.479,-54.651L331.901,-54.651L331.901,-55.837L337.479,-55.837ZM348.635,-55.837L348.635,-54.651L343.057,-54.651L343.057,-55.837L348.635,-55.837ZM359.791,-55.837L359.791,-54.651L354.213,-54.651L354.213,-55.837L359.791,-55.837ZM370.948,-55.837L370.948,-54.651L365.37,-54.651L365.37,-55.837L370.948,-55.837ZM382.104,-55.837L382.104,-54.651L376.526,-54.651L376.526,-55.837L382.104,-55.837ZM393.261,-55.837L393.261,-54.651L387.682,-54.651L387.682,-55.837L393.261,-55.837ZM404.417,-55.837L404.417,-54.651L398.839,-54.651L398.839,-55.837L404.417,-55.837ZM412.784,-53.433L411.408,-53.433L411.408,-54.651L409.995,-54.651L409.995,-55.837L412.784,-55.837L412.784,-53.433ZM412.784,-43.816L411.408,-43.816L411.408,-48.624L412.784,-48.624L412.784,-43.816ZM412.784,-34.198L411.408,-34.198L411.408,-39.007L412.784,-39.007L412.784,-34.198ZM412.784,-24.581L411.408,-24.581L411.408,-29.39L412.784,-29.39L412.784,-24.581ZM412.784,-14.964L411.408,-14.964L411.408,-19.772L412.784,-19.772L412.784,-14.964ZM412.784,-5.347L411.408,-5.347L411.408,-10.156L412.784,-10.156L412.784,-5.347ZM412.784,4.27L411.408,4.27L411.408,-0.538L412.784,-0.538L412.784,4.27ZM412.784,13.888L411.408,13.888L411.408,9.079L412.784,9.079L412.784,13.888ZM412.784,23.505L411.408,23.505L411.408,18.697L412.784,18.697L412.784,23.505ZM412.784,33.122L411.408,33.122L411.408,28.314L412.784,28.314L412.784,33.122ZM412.784,42.74L411.408,42.74L411.408,37.931L412.784,37.931L412.784,42.74ZM412.784,52.357L411.408,52.357L411.408,47.548L412.784,47.548L412.784,52.357ZM412.784,61.974L411.408,61.974L411.408,57.165L412.784,57.165L412.784,61.974ZM412.784,71.591L411.408,71.591L411.408,66.783L412.784,66.783L412.784,71.591ZM412.784,81.208L411.408,81.208L411.408,76.399L412.784,76.399L412.784,81.208ZM412.784,90.826L411.408,90.826L411.408,86.017L412.784,86.017L412.784,90.826ZM412.784,100.443L411.408,100.443L411.408,95.634L412.784,95.634L412.784,100.443ZM412.784,110.06L411.408,110.06L411.408,105.251L412.784,105.251L412.784,110.06ZM412.784,119.678L411.408,119.678L411.408,114.869L412.784,114.869L412.784,119.678ZM412.784,129.294L411.408,129.294L411.408,124.486L412.784,124.486L412.784,129.294ZM412.784,138.912L411.408,138.912L411.408,134.103L412.784,134.103L412.784,138.912ZM412.784,148.529L411.408,148.529L411.408,143.72L412.784,143.72L412.784,148.529ZM412.784,158.146L411.408,158.146L411.408,153.337L412.784,153.337L412.784,158.146ZM412.784,167.763L411.408,167.763L411.408,162.954L412.784,162.954L412.784,167.763ZM412.784,177.38L411.408,177.38L411.408,172.572L412.784,172.572L412.784,177.38ZM412.784,186.998L411.408,186.998L411.408,182.189L412.784,182.189L412.784,186.998ZM412.784,196.615L411.408,196.615L411.408,191.806L412.784,191.806L412.784,196.615ZM412.784,206.232L411.408,206.232L411.408,201.424L412.784,201.424L412.784,206.232ZM412.784,215.849L411.408,215.849L411.408,211.041L412.784,211.041L412.784,215.849ZM412.784,225.467L411.408,225.467L411.408,220.658L412.784,220.658L412.784,225.467ZM412.784,235.084L411.408,235.084L411.408,230.275L412.784,230.275L412.784,235.084ZM412.784,244.701L411.408,244.701L411.408,239.892L412.784,239.892L412.784,244.701ZM412.784,254.318L411.408,254.318L411.408,249.51L412.784,249.51L412.784,254.318ZM412.784,263.936L411.408,263.936L411.408,259.127L412.784,259.127L412.784,263.936ZM412.784,273.553L411.408,273.553L411.408,268.744L412.784,268.744L412.784,273.553ZM412.784,283.17L411.408,283.17L411.408,278.361L412.784,278.361L412.784,283.17ZM412.784,292.787L411.408,292.787L411.408,287.979L412.784,287.979L412.784,292.787ZM409.995,300L409.995,298.814L411.408,298.814L411.408,297.596L412.784,297.596L412.784,300L409.995,300ZM398.839,300L398.839,298.814L404.417,298.814L404.417,300L398.839,300ZM387.682,300L387.682,298.814L393.261,298.814L393.261,300L387.682,300ZM376.526,300L376.526,298.814L382.104,298.814L382.104,300L376.526,300ZM365.369,300L365.369,298.814L370.948,298.814L370.948,300L365.369,300ZM354.213,300L354.213,298.814L359.792,298.814L359.792,300L354.213,300ZM343.057,300L343.057,298.814L348.636,298.814L348.636,300L343.057,300ZM331.9,300L331.9,298.814L337.479,298.814L337.479,300L331.9,300ZM320.744,300L320.744,298.814L326.322,298.814L326.322,300L320.744,300ZM309.588,300L309.588,298.814L315.166,298.814L315.166,300L309.588,300ZM298.432,300L298.432,298.814L304.01,298.814L304.01,300L298.432,300ZM287.275,300L287.275,298.814L292.853,298.814L292.853,300L287.275,300ZM276.119,300L276.119,298.814L281.697,298.814L281.697,300L276.119,300ZM264.962,300L264.962,298.814L270.54,298.814L270.54,300L264.962,300ZM253.807,300L253.807,298.814L259.385,298.814L259.385,300L253.807,300ZM242.65,300L242.65,298.814L248.228,298.814L248.228,300L242.65,300ZM231.494,300L231.494,298.814L237.072,298.814L237.072,300L231.494,300ZM220.338,300L220.338,298.814L225.915,298.814L225.915,300L220.338,300ZM209.181,300L209.181,298.814L214.759,298.814L214.759,300L209.181,300ZM198.025,300L198.025,298.814L203.603,298.814L203.603,300L198.025,300ZM186.868,300L186.868,298.814L192.446,298.814L192.446,300L186.868,300ZM175.712,300L175.712,298.814L181.291,298.814L181.291,300L175.712,300ZM164.556,300L164.556,298.814L170.134,298.814L170.134,300L164.556,300ZM153.4,300L153.4,298.814L158.978,298.814L158.978,300L153.4,300ZM142.243,300L142.243,298.814L147.822,298.814L147.822,300L142.243,300ZM131.087,300L131.087,298.814L136.665,298.814L136.665,300L131.087,300ZM119.93,300L119.93,298.814L125.509,298.814L125.509,300L119.93,300ZM108.774,300L108.774,298.814L114.352,298.814L114.352,300L108.774,300ZM97.618,300L97.618,298.814L103.196,298.814L103.196,300L97.618,300ZM86.461,300L86.461,298.814L92.039,298.814L92.039,300L86.461,300ZM75.305,300L75.305,298.814L80.883,298.814L80.883,300L75.305,300ZM64.149,300L64.149,298.814L69.727,298.814L69.727,300L64.149,300ZM52.993,300L52.993,298.814L58.571,298.814L58.571,300L52.993,300ZM41.836,300L41.836,298.814L47.414,298.814L47.414,300L41.836,300ZM30.68,300L30.68,298.814L36.258,298.814L36.258,300L30.68,300ZM19.523,300L19.523,298.814L25.102,298.814L25.102,300L19.523,300ZM8.367,300L8.367,298.814L13.945,298.814L13.945,300L8.367,300ZM0,297.596L1.376,297.596L1.376,298.814L2.789,298.814L2.789,300L0,300L0,297.596ZM0,287.979L1.376,287.979L1.376,292.787L0,292.787L0,287.979ZM0,278.361L1.376,278.361L1.376,283.17L0,283.17L0,278.361ZM0,268.744L1.376,268.744L1.376,273.553L0,273.553L0,268.744ZM0,259.127L1.376,259.127L1.376,263.935L0,263.935L0,259.127ZM0,249.51L1.376,249.51L1.376,254.319L0,254.319L0,249.51ZM0,239.893L1.376,239.893L1.376,244.701L0,244.701L0,239.893ZM0,230.275L1.376,230.275L1.376,235.084L0,235.084L0,230.275ZM0,220.658L1.376,220.658L1.376,225.466L0,225.466L0,220.658ZM0,211.041L1.376,211.041L1.376,215.849L0,215.849L0,211.041ZM0,201.423L1.376,201.423L1.376,206.232L0,206.232L0,201.423ZM0,191.806L1.376,191.806L1.376,196.615L0,196.615L0,191.806ZM0,182.189L1.376,182.189L1.376,186.998L0,186.998L0,182.189ZM0,172.572L1.376,172.572L1.376,177.38L0,177.38L0,172.572ZM0,162.955L1.376,162.955L1.376,167.764L0,167.764L0,162.955ZM0,153.337L1.376,153.337L1.376,158.146L0,158.146L0,153.337ZM0,143.72L1.376,143.72L1.376,148.529L0,148.529L0,143.72ZM0,134.103L1.376,134.103L1.376,138.912L0,138.912L0,134.103ZM0,124.485L1.376,124.485L1.376,129.294L0,129.294L0,124.485ZM0,114.869L1.376,114.869L1.376,119.677L0,119.677L0,114.869ZM0,105.251L1.376,105.251L1.376,110.06L0,110.06L0,105.251ZM0,95.634L1.376,95.634L1.376,100.443L0,100.443L0,95.634ZM0,86.017L1.376,86.017L1.376,90.826L0,90.826L0,86.017ZM0,76.4L1.376,76.4L1.376,81.209L0,81.209L0,76.4ZM0,66.783L1.376,66.783L1.376,71.591L0,71.591L0,66.783ZM0,57.165L1.376,57.165L1.376,61.974L0,61.974L0,57.165ZM0,47.548L1.376,47.548L1.376,52.357L0,52.357L0,47.548ZM0,37.931L1.376,37.931L1.376,42.739L0,42.739L0,37.931ZM0,28.314L1.376,28.314L1.376,33.122L0,33.122L0,28.314ZM0,18.696L1.376,18.696L1.376,23.505L0,23.505L0,18.696ZM0,9.079L1.376,9.079L1.376,13.888L0,13.888L0,9.079ZM0,-0.538L1.376,-0.538L1.376,4.271L0,4.271L0,-0.538ZM0,-10.155L1.376,-10.155L1.376,-5.347L0,-5.347L0,-10.155ZM0,-19.773L1.376,-19.773L1.376,-14.964L0,-14.964L0,-19.773ZM0,-29.39L1.376,-29.39L1.376,-24.581L0,-24.581L0,-29.39ZM0,-39.007L1.376,-39.007L1.376,-34.198L0,-34.198L0,-39.007ZM0,-48.624L1.376,-48.624L1.376,-43.816L0,-43.816L0,-48.624ZM41.276,-17.799L39.9,-17.799L39.9,-20.253C39.9,-20.908 40.516,-21.439 41.276,-21.439L44.028,-21.439L44.028,-20.253L41.276,-20.253L41.276,-17.799ZM49.532,-20.253L49.532,-21.439L55.036,-21.439L55.036,-20.253L49.532,-20.253ZM60.54,-20.253L60.54,-21.439L66.043,-21.439L66.043,-20.253L60.54,-20.253ZM71.547,-20.253L71.547,-21.439L77.051,-21.439L77.051,-20.253L71.547,-20.253ZM82.555,-20.253L82.555,-21.439L88.059,-21.439L88.059,-20.253L82.555,-20.253ZM93.563,-20.253L93.563,-21.439L99.067,-21.439L99.067,-20.253L93.563,-20.253ZM104.571,-20.253L104.571,-21.439L110.074,-21.439L110.074,-20.253L104.571,-20.253ZM115.579,-20.253L115.579,-21.439L121.082,-21.439L121.082,-20.253L115.579,-20.253ZM126.586,-20.253L126.586,-21.439L132.09,-21.439L132.09,-20.253L126.586,-20.253ZM137.593,-20.253L137.593,-21.439L143.097,-21.439L143.097,-20.253L137.593,-20.253ZM148.601,-20.253L148.601,-21.439L154.105,-21.439L154.105,-20.253L148.601,-20.253ZM159.61,-20.253L159.61,-21.439L165.113,-21.439L165.113,-20.253L159.61,-20.253ZM170.617,-20.253L170.617,-21.439L176.121,-21.439L176.121,-20.253L170.617,-20.253ZM181.624,-20.253L181.624,-21.439L187.128,-21.439L187.128,-20.253L181.624,-20.253ZM192.632,-20.253L192.632,-21.439L198.136,-21.439L198.136,-20.253L192.632,-20.253ZM203.64,-20.253L203.64,-21.439L209.144,-21.439L209.144,-20.253L203.64,-20.253ZM214.648,-20.253L214.648,-21.439L220.152,-21.439L220.152,-20.253L214.648,-20.253ZM225.655,-20.253L225.655,-21.439L231.159,-21.439L231.159,-20.253L225.655,-20.253ZM236.663,-20.253L236.663,-21.439L242.167,-21.439L242.167,-20.253L236.663,-20.253ZM247.671,-20.253L247.671,-21.439L253.175,-21.439L253.175,-20.253L247.671,-20.253ZM258.679,-20.253L258.679,-21.439L264.183,-21.439L264.183,-20.253L258.679,-20.253ZM269.687,-20.253L269.687,-21.439L275.191,-21.439L275.191,-20.253L269.687,-20.253ZM280.694,-20.253L280.694,-21.439L286.198,-21.439L286.198,-20.253L280.694,-20.253ZM291.702,-20.253L291.702,-21.439L297.206,-21.439L297.206,-20.253L291.702,-20.253ZM302.71,-20.253L302.71,-21.439L308.213,-21.439L308.213,-20.253L302.71,-20.253ZM313.717,-20.253L313.717,-21.439L319.221,-21.439L319.221,-20.253L313.717,-20.253ZM324.725,-20.253L324.725,-21.439L330.229,-21.439L330.229,-20.253L324.725,-20.253ZM335.733,-20.253L335.733,-21.439L341.237,-21.439L341.237,-20.253L335.733,-20.253ZM346.74,-20.253L346.74,-21.439L352.244,-21.439L352.244,-20.253L346.74,-20.253ZM357.748,-20.253L357.748,-21.439L363.252,-21.439L363.252,-20.253L357.748,-20.253ZM368.756,-20.253L368.756,-21.439L371.508,-21.439L371.508,-20.253L368.756,-20.253ZM371.508,-20.253L372.884,-20.253L372.884,-17.799L371.508,-17.799L371.508,-20.253ZM371.508,-12.891L372.884,-12.891L372.884,-7.983L371.508,-7.983L371.508,-12.891ZM371.508,-3.075L372.884,-3.075L372.884,1.834L371.508,1.834L371.508,-3.075ZM371.508,6.741L372.884,6.741L372.884,11.65L371.508,11.65L371.508,6.741ZM371.508,16.558L372.884,16.558L372.884,21.466L371.508,21.466L371.508,16.558ZM371.508,26.374L372.884,26.374L372.884,31.282L371.508,31.282L371.508,26.374ZM371.508,36.19L372.884,36.19L372.884,41.098L371.508,41.098L371.508,36.19ZM371.508,46.006L372.884,46.006L372.884,50.914L371.508,50.914L371.508,46.006ZM371.508,55.823L372.884,55.823L372.884,60.731L371.508,60.731L371.508,55.823ZM371.508,65.639L372.884,65.639L372.884,70.547L371.508,70.547L371.508,65.639ZM371.508,75.455L372.884,75.455L372.884,80.363L371.508,80.363L371.508,75.455ZM371.508,85.271L372.884,85.271L372.884,90.179L371.508,90.179L371.508,85.271ZM371.508,95.087L372.884,95.087L372.884,99.995L371.508,99.995L371.508,95.087ZM371.508,104.903L372.884,104.903L372.884,109.811L371.508,109.811L371.508,104.903ZM371.508,114.719L372.884,114.719L372.884,119.627L371.508,119.627L371.508,114.719ZM371.508,124.536L372.884,124.536L372.884,129.444L371.508,129.444L371.508,124.536ZM371.508,134.351L372.884,134.351L372.884,139.26L371.508,139.26L371.508,134.351ZM371.508,144.168L372.884,144.168L372.884,149.076L371.508,149.076L371.508,144.168ZM371.508,153.984L372.884,153.984L372.884,158.892L371.508,158.892L371.508,153.984ZM371.508,163.8L372.884,163.8L372.884,168.708L371.508,168.708L371.508,163.8ZM371.508,173.616L372.884,173.616L372.884,178.524L371.508,178.524L371.508,173.616ZM371.508,183.433L372.884,183.433L372.884,188.341L371.508,188.341L371.508,183.433ZM371.508,193.249L372.884,193.249L372.884,198.157L371.508,198.157L371.508,193.249ZM371.508,203.065L372.884,203.065L372.884,207.973L371.508,207.973L371.508,203.065ZM371.508,212.881L372.884,212.881L372.884,217.789L371.508,217.789L371.508,212.881ZM371.508,222.697L372.884,222.697L372.884,227.605L371.508,227.605L371.508,222.697ZM371.508,232.513L372.884,232.513L372.884,237.421L371.508,237.421L371.508,232.513ZM371.508,242.33L372.884,242.33L372.884,247.238L371.508,247.238L371.508,242.33ZM371.508,252.146L372.884,252.146L372.884,257.054L371.508,257.054L371.508,252.146ZM371.508,261.962L372.884,261.962L372.884,264.416C372.884,265.071 372.268,265.602 371.508,265.602L368.756,265.602L368.756,264.416L371.508,264.416L371.508,261.962ZM363.252,264.416L363.252,265.602L357.748,265.602L357.748,264.416L363.252,264.416ZM352.244,264.416L352.244,265.602L346.741,265.602L346.741,264.416L352.244,264.416ZM341.237,264.416L341.237,265.602L335.733,265.602L335.733,264.416L341.237,264.416ZM330.229,264.416L330.229,265.602L324.725,265.602L324.725,264.416L330.229,264.416ZM319.221,264.416L319.221,265.602L313.717,265.602L313.717,264.416L319.221,264.416ZM308.213,264.416L308.213,265.602L302.71,265.602L302.71,264.416L308.213,264.416ZM297.205,264.416L297.205,265.602L291.702,265.602L291.702,264.416L297.205,264.416ZM286.198,264.416L286.198,265.602L280.694,265.602L280.694,264.416L286.198,264.416ZM275.191,264.416L275.191,265.602L269.687,265.602L269.687,264.416L275.191,264.416ZM264.183,264.416L264.183,265.602L258.679,265.602L258.679,264.416L264.183,264.416ZM253.174,264.416L253.174,265.602L247.671,265.602L247.671,264.416L253.174,264.416ZM242.167,264.416L242.167,265.602L236.663,265.602L236.663,264.416L242.167,264.416ZM231.16,264.416L231.16,265.602L225.656,265.602L225.656,264.416L231.16,264.416ZM220.152,264.416L220.152,265.602L214.648,265.602L214.648,264.416L220.152,264.416ZM209.144,264.416L209.144,265.602L203.64,265.602L203.64,264.416L209.144,264.416ZM198.136,264.416L198.136,265.602L192.632,265.602L192.632,264.416L198.136,264.416ZM187.129,264.416L187.129,265.602L181.625,265.602L181.625,264.416L187.129,264.416ZM176.121,264.416L176.121,265.602L170.617,265.602L170.617,264.416L176.121,264.416ZM165.113,264.416L165.113,265.602L159.609,265.602L159.609,264.416L165.113,264.416ZM154.105,264.416L154.105,265.602L148.601,265.602L148.601,264.416L154.105,264.416ZM143.097,264.416L143.097,265.602L137.593,265.602L137.593,264.416L143.097,264.416ZM132.09,264.416L132.09,265.602L126.586,265.602L126.586,264.416L132.09,264.416ZM121.082,264.416L121.082,265.602L115.578,265.602L115.578,264.416L121.082,264.416ZM110.074,264.416L110.074,265.602L104.571,265.602L104.571,264.416L110.074,264.416ZM99.067,264.416L99.067,265.602L93.563,265.602L93.563,264.416L99.067,264.416ZM88.059,264.416L88.059,265.602L82.555,265.602L82.555,264.416L88.059,264.416ZM77.051,264.416L77.051,265.602L71.547,265.602L71.547,264.416L77.051,264.416ZM66.044,264.416L66.044,265.602L60.54,265.602L60.54,264.416L66.044,264.416ZM55.036,264.416L55.036,265.602L49.532,265.602L49.532,264.416L55.036,264.416ZM44.028,264.416L44.028,265.602L41.276,265.602C40.516,265.602 39.9,265.071 39.9,264.416L39.9,261.962L41.276,261.962L41.276,264.416L44.028,264.416ZM41.276,257.054L39.9,257.054L39.9,252.146L41.276,252.146L41.276,257.054ZM41.276,247.238L39.9,247.238L39.9,242.329L41.276,242.329L41.276,247.238ZM41.276,237.422L39.9,237.422L39.9,232.513L41.276,232.513L41.276,237.422ZM41.276,227.605L39.9,227.605L39.9,222.697L41.276,222.697L41.276,227.605ZM41.276,217.789L39.9,217.789L39.9,212.881L41.276,212.881L41.276,217.789ZM41.276,207.973L39.9,207.973L39.9,203.065L41.276,203.065L41.276,207.973ZM41.276,198.157L39.9,198.157L39.9,193.249L41.276,193.249L41.276,198.157ZM41.276,188.34L39.9,188.34L39.9,183.432L41.276,183.432L41.276,188.34ZM41.276,178.524L39.9,178.524L39.9,173.616L41.276,173.616L41.276,178.524ZM41.276,168.708L39.9,168.708L39.9,163.8L41.276,163.8L41.276,168.708ZM41.276,158.892L39.9,158.892L39.9,153.984L41.276,153.984L41.276,158.892ZM41.276,149.076L39.9,149.076L39.9,144.168L41.276,144.168L41.276,149.076ZM41.276,139.26L39.9,139.26L39.9,134.352L41.276,134.352L41.276,139.26ZM41.276,129.444L39.9,129.444L39.9,124.536L41.276,124.536L41.276,129.444ZM41.276,119.627L39.9,119.627L39.9,114.719L41.276,114.719L41.276,119.627ZM41.276,109.812L39.9,109.812L39.9,104.903L41.276,104.903L41.276,109.812ZM41.276,99.995L39.9,99.995L39.9,95.087L41.276,95.087L41.276,99.995ZM41.276,90.179L39.9,90.179L39.9,85.271L41.276,85.271L41.276,90.179ZM41.276,80.363L39.9,80.363L39.9,75.455L41.276,75.455L41.276,80.363ZM41.276,70.547L39.9,70.547L39.9,65.639L41.276,65.639L41.276,70.547ZM41.276,60.73L39.9,60.73L39.9,55.822L41.276,55.822L41.276,60.73ZM41.276,50.914L39.9,50.914L39.9,46.006L41.276,46.006L41.276,50.914ZM41.276,41.098L39.9,41.098L39.9,36.19L41.276,36.19L41.276,41.098ZM41.276,31.282L39.9,31.282L39.9,26.374L41.276,26.374L41.276,31.282ZM41.276,21.466L39.9,21.466L39.9,16.558L41.276,16.558L41.276,21.466ZM41.276,11.65L39.9,11.65L39.9,6.742L41.276,6.742L41.276,11.65ZM41.276,1.833L39.9,1.833L39.9,-3.075L41.276,-3.075L41.276,1.833ZM41.276,-7.983L39.9,-7.983L39.9,-12.891L41.276,-12.891L41.276,-7.983Z"/>
        <g transform="matrix(1.29551,4.20564e-48,-3.43321e-47,1.30245,-419.597,-90.7355)">
            <path d="M323.885,122.417L323.885,26.794L435.403,26.794L435.403,54.115L403.542,54.115L355.746,54.115L355.746,122.417L323.885,122.417ZM642.512,122.417L610.651,122.417L610.651,95.096L610.651,54.115L530.994,54.115L530.994,26.794L642.512,26.794L642.512,122.417ZM530.994,300L530.994,272.679L562.855,272.679L610.651,272.679L610.651,204.378L642.512,204.378L642.512,300L530.994,300ZM323.885,204.378L355.746,204.378L355.746,231.699L355.746,272.679L435.403,272.679L435.403,300L323.885,300L323.885,204.378Z"/>
        </g>
    </g>
    <g transform="matrix(0.72681,0,1.64215e-47,0.843082,-1.77636e-15,47.0754)">
        <path d="M412.784,-55.837L412.784,300L0,300L0,-55.837L412.784,-55.837ZM371.508,-20.253L41.276,-20.253L41.276,264.416L371.508,264.416L371.508,-20.253Z"/>
        <g transform="matrix(1.29551,-7.20827e-64,-2.94275e-47,1.30245,-419.597,-90.7358)">
            <path d="M323.885,122.417L323.885,26.794L435.403,26.794L435.403,54.115L403.542,54.115L355.746,54.115L355.746,122.417L323.885,122.417ZM642.512,122.417L610.651,122.417L610.651,95.096L610.651,54.115L530.994,54.115L530.994,26.794L642.512,26.794L642.512,122.417ZM530.994,300L530.994,272.679L562.855,272.679L610.651,272.679L610.651,204.378L642.512,204.378L642.512,300L530.994,300ZM323.885,204.378L355.746,204.378L355.746,231.699L355.746,272.679L435.403,272.679L435.403,300L323.885,300L323.885,204.378Z"/>
        </g>
    </g>
</svg>
