<?xml version="1.0" standalone="no"?>
<!DOCTYPE svg PUBLIC "-//W3C//DTD SVG 20010904//EN"
 "http://www.w3.org/TR/2001/REC-SVG-20010904/DTD/svg10.dtd">
<svg version="1.0" xmlns="http://www.w3.org/2000/svg"
 width="300.000000pt" height="188.000000pt" viewBox="0 0 300.000000 188.000000"
 preserveAspectRatio="xMidYMid meet">
<metadata>
Created by potrace 1.10, written by Peter Selinger 2001-2011
</metadata>
<g transform="translate(0.000000,188.000000) scale(0.100000,-0.100000)"
fill="#000000" stroke="none">
<path d="M25 1858 c-3 -7 -4 -424 -3 -926 l3 -914 1460 0 c803 0 1470 0 1483
1 l22 1 -2 923 -3 922 -1478 3 c-1177 2 -1479 0 -1482 -10z m311 -52 c-20 -18
-41 -48 -47 -65 -12 -33 -29 -42 -29 -15 0 26 -65 84 -95 84 -30 0 -65 -16
-82 -39 -42 -54 29 -142 89 -110 l22 12 -22 8 c-46 17 -35 69 14 69 16 0 28
-10 39 -30 44 -85 -21 -196 -127 -214 -27 -5 -38 -12 -38 -24 0 -9 -4 -23 -9
-30 -5 -8 -7 47 -5 125 1 76 3 166 3 201 l1 62 161 0 160 0 -35 -34z m2181 16
c-30 -33 -38 -70 -23 -107 8 -18 23 -38 34 -44 53 -28 117 2 110 51 -4 29 -34
36 -41 8 -6 -25 -43 -27 -56 -2 -15 28 9 66 43 70 57 7 95 -35 135 -150 11
-29 22 -60 25 -69 5 -12 0 -14 -28 -11 -25 3 -40 -2 -55 -17 -27 -27 -29 -67
-3 -55 31 14 110 16 146 4 45 -15 125 -86 142 -127 11 -26 14 -155 14 -678 l0
-645 -1460 0 -1460 0 0 633 c0 379 4 646 10 667 23 85 126 160 218 160 32 0
54 -5 62 -15 18 -22 30 -18 30 8 0 40 -23 61 -69 61 -22 1 -40 3 -38 6 1 3 16
41 32 84 36 96 79 146 123 146 37 0 67 -37 57 -70 -9 -27 -55 -28 -62 0 -8 28
-31 25 -39 -6 -9 -35 23 -67 67 -66 75 2 112 100 60 156 l-24 26 1033 0 c984
0 1032 -1 1017 -18z m442 -184 c-1 -112 -4 -189 -8 -173 -5 26 -13 32 -55 42
-110 27 -172 155 -109 225 21 24 60 23 68 -1 8 -27 -4 -51 -29 -51 -21 -1 -21
-1 -1 -16 40 -30 105 7 105 60 0 68 -66 104 -129 72 -31 -17 -61 -60 -62 -93
0 -10 -10 5 -23 32 -13 28 -37 63 -55 78 l-33 27 166 0 166 0 -1 -202z"/>
</g>
</svg>
