<?xml version="1.0" standalone="no"?>
<!DOCTYPE svg PUBLIC "-//W3C//DTD SVG 20010904//EN"
 "http://www.w3.org/TR/2001/REC-SVG-20010904/DTD/svg10.dtd">
<svg version="1.0" xmlns="http://www.w3.org/2000/svg"
 width="300.000000pt" height="203.000000pt" viewBox="0 0 300.000000 203.000000"
 preserveAspectRatio="xMidYMid meet">
<metadata>
Created by potrace 1.10, written by Peter Selinger 2001-2011
</metadata>
<g transform="translate(0.000000,203.000000) scale(0.100000,-0.100000)"
fill="#000000" stroke="none">
<path d="M1528 1962 c-71 -76 -148 -188 -205 -298 l-37 -71 -68 -7 c-105 -10
-270 -44 -396 -82 -267 -81 -485 -217 -654 -408 -88 -99 -151 -187 -163 -226
l-7 -25 29 28 c40 37 47 34 24 -10 -48 -97 -34 -109 30 -27 54 70 155 171 231
233 51 41 303 204 332 214 6 2 8 7 5 11 -4 4 -42 -6 -85 -23 -43 -17 -79 -29
-81 -27 -2 1 32 19 74 39 151 70 400 127 555 127 48 0 88 -3 88 -8 0 -4 -12
-57 -26 -117 -31 -135 -43 -369 -25 -520 11 -95 65 -276 106 -354 9 -18 15
-35 12 -37 -5 -5 -167 20 -257 40 -287 63 -536 212 -688 411 l-22 30 6 -35 c8
-45 56 -140 92 -182 60 -72 60 -71 -3 -44 -32 15 -60 24 -63 22 -7 -8 54 -80
116 -137 31 -29 90 -74 130 -100 l74 -47 -39 -6 c-78 -12 -220 -26 -273 -26
-32 0 -50 -4 -45 -9 14 -12 251 -68 375 -87 110 -18 437 -23 461 -8 8 5 -1 11
-27 19 -38 11 -36 11 56 18 52 4 118 10 145 14 l51 5 56 -73 c78 -103 145
-175 153 -167 4 4 -2 19 -13 35 -11 15 -40 69 -66 120 l-46 92 40 11 c52 14
51 30 -2 32 -39 1 -40 1 -8 5 19 1 67 7 105 13 39 6 90 12 115 15 25 3 67 8
94 11 55 7 55 12 -7 -78 -54 -78 -42 -94 18 -23 92 109 109 122 177 139 36 9
73 16 84 16 29 0 125 48 157 78 31 30 37 58 10 47 -59 -25 -115 -45 -163 -59
l-55 -15 35 30 c76 66 282 148 485 194 44 10 84 21 88 25 8 7 -79 43 -136 56
-24 5 -26 9 -15 19 27 26 176 94 273 125 120 37 178 46 228 32 43 -12 44 -9
17 36 -33 54 -129 144 -251 234 -142 106 -229 159 -339 211 -277 128 -477 175
-792 184 -148 4 -188 8 -188 19 0 36 92 239 157 347 19 32 33 60 31 63 -3 2
-34 -27 -70 -64z m28 -597 c200 -34 445 -108 596 -179 84 -40 212 -126 202
-136 -5 -5 -40 -13 -79 -19 -232 -34 -424 -83 -433 -109 -2 -8 6 -10 30 -4 60
13 398 8 466 -7 70 -15 68 -19 -15 -51 -82 -31 -203 -90 -203 -99 0 -8 102
-37 150 -43 21 -3 15 -9 -38 -36 -95 -48 -151 -88 -253 -181 l-91 -85 -97 -18
c-119 -24 -383 -39 -393 -24 -13 19 -9 88 13 204 l21 114 -21 71 c-51 176 -72
374 -57 540 l8 77 53 0 c29 0 92 -7 141 -15z"/>
</g>
</svg>
