<?xml version="1.0" standalone="no"?>
<!DOCTYPE svg PUBLIC "-//W3C//DTD SVG 20010904//EN"
 "http://www.w3.org/TR/2001/REC-SVG-20010904/DTD/svg10.dtd">
<svg version="1.0" xmlns="http://www.w3.org/2000/svg"
 width="300.000000pt" height="300.000000pt" viewBox="0 0 300.000000 300.000000"
 preserveAspectRatio="xMidYMid meet">
<metadata>
Created by potrace 1.10, written by Peter Selinger 2001-2011
</metadata>
<g transform="translate(0.000000,300.000000) scale(0.100000,-0.100000)"
fill="#000000" stroke="none">
<path d="M1486 2973 c-2 -10 -24 -111 -47 -225 l-42 -206 -56 -7 c-128 -16
-315 -89 -428 -166 l-42 -29 -113 73 c-179 117 -252 159 -256 147 -3 -9 141
-272 194 -355 12 -19 9 -28 -35 -88 -87 -119 -156 -282 -182 -431 l-11 -64
-196 -41 c-212 -45 -250 -57 -236 -71 8 -8 203 -54 376 -90 55 -11 58 -12 63
-48 25 -149 113 -362 194 -469 l40 -52 -105 -182 c-98 -172 -112 -199 -99
-199 15 0 82 41 218 132 l149 100 59 -42 c89 -63 220 -119 338 -147 58 -14
111 -27 117 -28 6 -2 30 -98 54 -213 42 -205 53 -243 65 -230 3 3 26 104 51
224 24 120 46 218 47 219 1 0 42 9 91 18 118 24 247 77 347 143 46 30 85 54
87 54 2 0 63 -40 136 -88 157 -106 225 -146 233 -139 5 6 -74 153 -168 315
l-36 62 61 94 c76 115 121 218 155 358 l26 108 55 11 c171 35 366 81 374 89
13 13 -16 22 -235 70 l-196 43 -17 86 c-33 157 -101 313 -186 426 l-37 50 103
180 c57 99 104 185 104 193 0 17 -9 12 -185 -101 -77 -49 -151 -97 -165 -105
-24 -14 -29 -12 -100 33 -118 77 -259 130 -401 150 l-47 7 -43 221 c-41 204
-59 257 -73 210z"/>
</g>
</svg>
