<?xml version="1.0" standalone="no"?>
<!DOCTYPE svg PUBLIC "-//W3C//DTD SVG 20010904//EN"
 "http://www.w3.org/TR/2001/REC-SVG-20010904/DTD/svg10.dtd">
<svg version="1.0" xmlns="http://www.w3.org/2000/svg"
 width="300.000000pt" height="24.000000pt" viewBox="0 0 300.000000 24.000000"
 preserveAspectRatio="xMidYMid meet">
<metadata>
Created by potrace 1.10, written by Peter Selinger 2001-2011
</metadata>
<g transform="translate(0.000000,24.000000) scale(0.100000,-0.100000)"
fill="#000000" stroke="none">
<path d="M80 214 c-11 -12 -11 -18 2 -30 11 -11 18 -12 22 -5 4 6 0 11 -9 11
-9 0 -15 6 -12 13 2 6 12 12 23 12 13 0 20 -8 22 -27 4 -30 -12 -42 -71 -53
-49 -9 -47 -23 5 -31 54 -9 83 -37 68 -65 -6 -11 -19 -19 -27 -17 -22 4 -29
28 -8 28 9 0 13 5 9 11 -4 7 -11 6 -22 -5 -13 -12 -13 -18 -2 -30 33 -41 85 5
56 49 -22 33 -20 42 4 20 12 -11 20 -31 20 -52 l0 -33 1339 0 1338 0 7 40 c4
25 14 43 26 50 24 13 25 7 4 -25 -29 -44 23 -90 56 -50 10 12 10 18 0 30 -14
17 -30 20 -30 5 0 -5 7 -10 15 -10 20 0 19 -19 -1 -27 -10 -4 -22 1 -30 12
-18 24 -2 53 34 61 78 17 82 27 17 43 -51 13 -71 39 -51 66 8 11 20 16 30 12
20 -8 21 -27 0 -27 -8 0 -12 -5 -8 -11 4 -7 11 -6 22 5 13 12 13 18 2 30 -18
22 -47 20 -61 -5 -9 -18 -7 -27 10 -50 23 -31 21 -35 -10 -19 -11 7 -21 26
-25 50 l-7 40 -1338 0 -1339 0 0 -38 c0 -40 -14 -62 -39 -62 -10 0 -12 3 -5 8
6 4 16 17 23 30 23 44 -28 85 -59 46z m17 -101 c-4 -3 -7 0 -7 7 0 7 3 10 7 7
3 -4 3 -10 0 -14z m2820 0 c-4 -3 -7 0 -7 7 0 7 3 10 7 7 3 -4 3 -10 0 -14z"/>
</g>
</svg>
