<?xml version="1.0" standalone="no"?>
<!DOCTYPE svg PUBLIC "-//W3C//DTD SVG 20010904//EN"
 "http://www.w3.org/TR/2001/REC-SVG-20010904/DTD/svg10.dtd">
<svg version="1.0" xmlns="http://www.w3.org/2000/svg"
 width="300.000000pt" height="70.000000pt" viewBox="0 0 300.000000 70.000000"
 preserveAspectRatio="xMidYMid meet">
<metadata>
Created by potrace 1.10, written by Peter Selinger 2001-2011
</metadata>
<g transform="translate(0.000000,70.000000) scale(0.100000,-0.100000)"
fill="#000000" stroke="none">
<path d="M92 684 c-28 -19 -38 -39 -47 -91 -7 -42 -6 -43 21 -43 39 0 17 -21
-33 -30 l-38 -8 39 -1 c32 -1 44 5 72 34 l33 35 1361 0 1361 0 33 -35 c28 -29
40 -35 72 -34 l39 1 -40 9 c-51 12 -69 29 -31 29 28 0 29 1 22 47 -6 48 -34
88 -68 99 -25 8 -68 -21 -68 -46 0 -23 31 -42 49 -30 16 9 8 40 -10 40 -6 0
-9 -7 -5 -15 3 -9 0 -15 -9 -15 -16 0 -18 9 -9 34 8 21 58 21 78 0 20 -19 21
-74 2 -100 -14 -19 -15 -19 -23 3 l-8 23 -395 3 c-326 3 -405 7 -455 20 -107
29 -275 50 -357 43 -55 -4 -78 -2 -81 7 -3 9 -11 9 -35 1 -28 -11 -32 -10 -37
7 -8 25 -45 25 -52 -1 -4 -16 -9 -18 -25 -9 -11 6 -27 7 -36 3 -9 -4 -75 -8
-147 -9 -102 -1 -163 -8 -283 -33 l-154 -32 -359 0 c-312 0 -359 -2 -359 -15
0 -20 -26 -19 -34 1 -12 32 -5 66 18 89 20 20 30 23 48 16 26 -9 31 -42 8 -48
-12 -4 -12 -3 -1 5 10 7 10 11 1 17 -17 11 -37 -12 -23 -26 16 -16 47 -7 51
14 4 22 -25 57 -47 57 -9 0 -27 -7 -39 -16z m1425 -20 c3 -8 -1 -22 -10 -31
-13 -14 -16 -13 -22 6 -11 35 19 59 32 25z m-68 -19 c24 -12 50 -45 36 -45
-10 0 -75 45 -75 53 0 10 7 9 39 -8z m141 8 c0 -5 -15 -17 -33 -28 -46 -28
-48 -28 -41 -11 9 24 74 58 74 39z m-176 -33 c46 -23 43 -23 -87 0 -55 9 -86
9 -175 -4 -59 -9 -127 -15 -152 -15 -43 1 -42 2 25 16 184 37 315 38 389 3z
m516 3 c145 -25 69 -31 -96 -8 -95 13 -131 14 -175 6 -129 -26 -117 -25 -92
-7 52 39 168 41 363 9z m-565 -23 c13 -5 -29 -9 -110 -9 -81 0 -123 4 -110 9
11 5 61 9 110 9 50 0 99 -4 110 -9z m470 0 c13 -5 -26 -9 -105 -9 -84 -1 -120
2 -110 9 18 12 187 12 215 0z"/>
<path d="M150 557 c0 -25 -46 -56 -100 -68 -30 -7 -47 -14 -38 -16 32 -8 102
19 130 49 29 31 35 48 18 48 -5 0 -10 -6 -10 -13z"/>
<path d="M2846 534 c21 -31 59 -51 113 -60 60 -10 50 3 -14 16 -39 8 -61 19
-79 41 -30 36 -42 38 -20 3z"/>
<path d="M43 225 c59 -16 98 -41 104 -66 5 -19 38 -19 1344 -19 886 0 1339 -3
1339 -10 0 -7 -456 -10 -1347 -10 l-1348 0 -17 30 c-9 17 -27 34 -40 39 -44
16 -78 21 -78 12 0 -4 17 -11 39 -15 21 -3 44 -13 51 -21 11 -13 8 -15 -20
-15 l-33 0 7 -42 c12 -81 74 -131 116 -93 28 25 23 60 -9 60 -31 0 -40 -25
-12 -32 25 -6 27 -19 4 -27 -22 -9 -67 25 -71 54 -8 52 26 97 41 55 5 -12 63
-15 379 -17 369 -4 374 -4 493 -32 94 -22 149 -29 257 -31 75 -2 145 -8 154
-13 11 -6 27 -7 42 -1 19 7 29 5 43 -7 17 -15 21 -16 37 -2 11 10 28 14 48 11
18 -3 34 0 38 5 3 6 39 8 90 5 95 -6 208 8 348 43 94 23 108 24 472 24 328 0
376 2 376 15 0 20 26 19 34 -1 12 -32 5 -66 -18 -89 -20 -20 -30 -23 -48 -16
-24 9 -31 42 -10 49 8 2 10 -2 5 -14 -4 -12 -2 -15 8 -12 24 8 16 33 -11 33
-36 0 -40 -38 -5 -61 47 -31 101 15 112 96 6 40 5 40 -27 40 -28 0 -31 2 -20
15 7 8 30 18 51 21 22 4 39 11 39 15 0 9 -34 4 -78 -12 -13 -5 -31 -22 -40
-39 -17 -30 -42 -41 -42 -17 0 37 44 71 120 94 43 12 43 13 8 9 -52 -6 -108
-35 -121 -63 l-10 -23 -1337 0 -1337 0 -13 25 c-16 30 -85 65 -126 64 -24 -1
-21 -3 19 -14z m992 -125 c103 -24 225 -32 298 -19 39 6 92 13 116 15 43 4 43
4 28 -19 -16 -25 -63 -45 -74 -32 -5 4 -3 10 3 12 6 2 20 11 30 19 18 15 18
15 -1 8 -82 -29 -125 -35 -216 -30 -91 6 -285 39 -297 51 -9 8 69 5 113 -5z
m335 -1 c-31 -12 -215 -12 -255 0 -21 7 15 9 125 10 112 0 148 -3 130 -10z
m216 -46 c18 -11 18 -12 -4 -12 -25 -1 -76 44 -67 58 3 6 16 0 28 -12 13 -12
32 -27 43 -34z m154 24 c59 0 137 8 178 17 79 17 148 21 122 7 -37 -21 -202
-45 -305 -45 -87 0 -118 3 -147 18 -48 23 -40 40 10 19 26 -12 67 -16 142 -16z
m135 22 c-41 -12 -224 -13 -255 0 -18 7 17 10 130 10 109 -1 146 -3 125 -10z
m-361 -34 c6 -17 -2 -45 -14 -45 -15 0 -22 19 -15 40 8 24 21 26 29 5z m-1349
-6 c11 -17 -1 -21 -15 -4 -8 9 -8 15 -2 15 6 0 14 -5 17 -11z"/>
</g>
</svg>
