<?xml version="1.0" standalone="no"?>
<!DOCTYPE svg PUBLIC "-//W3C//DTD SVG 20010904//EN"
 "http://www.w3.org/TR/2001/REC-SVG-20010904/DTD/svg10.dtd">
<svg version="1.0" xmlns="http://www.w3.org/2000/svg"
 width="300.000000pt" height="300.000000pt" viewBox="0 0 300.000000 300.000000"
 preserveAspectRatio="xMidYMid meet">
<metadata>
Created by potrace 1.10, written by Peter Selinger 2001-2011
</metadata>
<g transform="translate(0.000000,300.000000) scale(0.100000,-0.100000)"
fill="#000000" stroke="none">
<path d="M1398 2769 c-81 -11 -179 -45 -255 -90 -130 -78 -266 -239 -314 -373
l-24 -66 -87 0 -87 0 -105 -87 c-357 -300 -425 -359 -425 -366 -1 -5 35 -48
79 -95 44 -48 80 -89 80 -92 0 -5 -121 -143 -242 -277 l-20 -22 145 -94 c219
-143 371 -251 487 -346 122 -100 327 -304 420 -418 l65 -80 189 -73 190 -72
114 42 c289 105 260 89 369 213 254 292 378 397 797 676 l228 153 -24 26
c-156 171 -238 265 -238 274 0 5 27 38 59 72 33 33 69 72 81 86 l22 25 -49 43
c-26 24 -145 125 -263 225 l-215 182 -88 5 -88 5 -26 65 c-88 222 -303 406
-523 448 -87 17 -179 21 -252 11z"/>
</g>
</svg>
