<?xml version="1.0" standalone="no"?>
<!DOCTYPE svg PUBLIC "-//W3C//DTD SVG 20010904//EN"
 "http://www.w3.org/TR/2001/REC-SVG-20010904/DTD/svg10.dtd">
<svg version="1.0" xmlns="http://www.w3.org/2000/svg"
 width="300.000000pt" height="300.000000pt" viewBox="0 0 300.000000 300.000000"
 preserveAspectRatio="xMidYMid meet">
<metadata>
Created by potrace 1.10, written by Peter Selinger 2001-2011
</metadata>
<g transform="translate(0.000000,300.000000) scale(0.100000,-0.100000)"
fill="#000000" stroke="none">
<path d="M1466 2978 c-32 -53 -126 -216 -126 -221 0 -3 -23 -43 -51 -89 -28
-46 -76 -130 -106 -188 -59 -112 -119 -202 -192 -288 -87 -102 -320 -292 -436
-356 -27 -16 -107 -64 -177 -107 -70 -43 -131 -79 -135 -79 -16 -1 -227 -135
-230 -147 -3 -7 15 -22 39 -34 24 -12 50 -27 58 -34 8 -7 55 -34 105 -60 50
-26 151 -85 225 -132 252 -157 376 -251 491 -370 77 -80 196 -235 211 -274 3
-9 49 -87 102 -173 53 -86 96 -159 96 -161 0 -3 22 -40 49 -83 27 -43 61 -101
75 -130 14 -29 32 -52 39 -52 7 0 20 15 28 32 92 195 371 665 444 748 65 75
233 238 258 251 15 8 91 57 169 110 79 53 163 107 188 120 25 13 47 26 50 29
3 3 48 30 100 59 142 80 240 143 240 155 -1 10 -112 78 -310 190 -36 20 -119
72 -185 115 -66 43 -158 103 -205 131 -59 37 -121 89 -205 174 -156 157 -230
267 -437 654 -51 97 -138 232 -149 232 -5 0 -15 -10 -23 -22z"/>
</g>
</svg>
