<?xml version="1.0" standalone="no"?>
<!DOCTYPE svg PUBLIC "-//W3C//DTD SVG 20010904//EN"
 "http://www.w3.org/TR/2001/REC-SVG-20010904/DTD/svg10.dtd">
<svg version="1.0" xmlns="http://www.w3.org/2000/svg"
 width="300.000000pt" height="370.000000pt" viewBox="0 0 300.000000 370.000000"
 preserveAspectRatio="xMidYMid meet">
<metadata>
Created by potrace 1.10, written by Peter Selinger 2001-2011
</metadata>
<g transform="translate(0.000000,370.000000) scale(0.100000,-0.100000)"
fill="#000000" stroke="none">
<path d="M23 3694 c3 -4 39 -17 78 -31 86 -28 168 -81 207 -131 46 -59 138
-229 181 -334 34 -85 118 -342 136 -419 6 -25 12 -27 78 -34 123 -12 180 -57
212 -169 18 -60 16 -116 -6 -200 l-10 -39 -25 36 c-29 43 -52 57 -93 57 -33 0
-51 -22 -51 -63 0 -55 164 -248 225 -263 11 -3 65 -4 120 -2 l100 3 29 60 c42
85 47 182 13 245 -49 94 -109 91 -154 -7 l-26 -56 -23 45 c-60 117 -80 238
-50 297 22 42 80 88 136 108 27 10 50 23 50 29 0 7 -21 76 -46 154 -78 243
-90 337 -56 448 30 94 72 147 202 251 l25 20 -629 1 c-346 0 -627 -3 -623 -6z"/>
<path d="M1720 3692 c0 -4 15 -16 33 -27 98 -57 169 -141 198 -236 35 -112 24
-202 -55 -447 -25 -78 -46 -148 -46 -155 0 -8 25 -21 55 -31 147 -46 182 -154
116 -351 -17 -49 -31 -92 -31 -94 0 -3 -14 17 -31 45 -34 55 -65 83 -91 84
-46 0 -108 -97 -108 -171 0 -41 37 -153 61 -183 20 -25 23 -26 131 -26 l110 0
74 72 c120 116 164 230 100 259 -30 14 -76 -8 -107 -53 l-23 -32 -13 50 c-20
79 -16 161 11 220 40 86 103 123 229 136 28 3 30 8 101 229 75 236 118 337
191 454 76 123 199 222 298 240 21 4 40 11 43 16 3 5 -259 9 -620 9 -344 0
-626 -4 -626 -8z"/>
<path d="M1466 3101 c-54 -36 -121 -164 -146 -279 -16 -74 -16 -73 -46 -57
-75 38 -190 21 -250 -39 -47 -47 -61 -102 -46 -188 12 -68 35 -128 50 -128 4
0 14 15 22 33 9 19 30 39 53 50 36 18 38 18 74 0 87 -42 116 -196 60 -317 -15
-32 -27 -60 -27 -62 0 -2 133 -4 296 -4 163 0 294 3 292 8 -65 126 -75 209
-35 295 43 95 116 118 172 54 17 -18 35 -42 41 -53 10 -17 14 -10 33 51 46
147 19 250 -75 296 -69 33 -131 36 -183 9 -24 -12 -44 -20 -45 -18 -1 2 -12
39 -24 83 -31 108 -85 216 -127 254 -42 36 -50 37 -89 12z m83 -447 c12 -15
21 -32 21 -38 0 -6 -9 4 -20 22 -15 25 -27 32 -50 32 -45 0 -72 -48 -67 -118
2 -30 0 -47 -4 -40 -5 7 -9 30 -9 51 0 97 80 153 129 91z m28 -106 c-2 -13 -4
-5 -4 17 -1 22 1 32 4 23 2 -10 2 -28 0 -40z m-24 -66 c-27 -36 -72 -41 -99
-10 l-19 23 21 -17 c33 -28 72 -23 92 11 9 16 19 28 21 25 3 -2 -4 -17 -16
-32z"/>
<path d="M52 2903 c-8 -3 19 -38 76 -97 158 -163 308 -380 407 -589 l56 -117
142 0 c78 0 148 4 154 8 9 5 -11 31 -63 82 -86 85 -114 132 -114 189 0 31 6
44 26 60 38 30 68 26 114 -15 49 -45 55 -36 47 75 -6 88 -29 144 -77 184 -52
45 -170 48 -237 7 l-31 -19 -43 55 c-64 83 -155 144 -254 170 -49 13 -177 18
-203 7z"/>
<path d="M2750 2896 c-86 -23 -144 -60 -225 -141 l-80 -80 -45 23 c-94 47
-213 17 -258 -65 -27 -50 -47 -160 -37 -210 l6 -34 40 35 c45 41 88 47 119 16
57 -57 30 -134 -88 -248 l-85 -82 167 2 167 3 43 102 c96 225 200 383 366 555
65 68 116 126 114 130 -8 12 -154 8 -204 -6z"/>
<path d="M289 2523 c-12 -32 -4 -86 17 -118 24 -37 82 -56 112 -36 11 7 10 17
-8 52 -30 60 -82 128 -98 129 -7 0 -17 -12 -23 -27z"/>
<path d="M2647 2518 c-44 -59 -79 -128 -73 -143 13 -34 98 -9 122 36 24 47 13
139 -16 139 -5 0 -20 -15 -33 -32z"/>
<path d="M546 2064 c-28 -28 -17 -70 23 -88 25 -10 26 -14 20 -66 -3 -30 -6
-45 -7 -32 -2 16 -8 22 -25 22 -31 0 -56 -29 -64 -73 -4 -29 -1 -40 20 -61 15
-14 35 -26 46 -26 17 0 20 8 24 58 2 44 4 37 5 -30 l2 -88 910 0 910 0 0 143
0 142 33 15 c35 16 45 46 27 79 -11 21 -13 21 -960 21 -849 0 -950 -2 -964
-16z m411 -170 c-3 -3 -12 -4 -19 -1 -8 3 -5 6 6 6 11 1 17 -2 13 -5z m533 2
c0 -2 -12 -11 -27 -20 l-28 -17 24 20 c23 21 31 25 31 17z m560 1 c0 -2 -13
-13 -30 -25 -17 -13 -27 -17 -24 -8 3 7 15 18 27 24 26 13 27 13 27 9z m-1130
-10 c0 -2 -10 -12 -22 -23 l-23 -19 19 23 c18 21 26 27 26 19z m75 -17 c10
-11 16 -20 13 -20 -3 0 -13 9 -23 20 -10 11 -16 20 -13 20 3 0 13 -9 23 -20z
m557 3 c26 -23 23 -75 -4 -99 -23 -19 -23 -19 -5 2 25 30 22 79 -5 98 -12 9
-18 16 -14 16 5 0 18 -7 28 -17z m562 -5 c9 -12 16 -34 15 -48 -1 -21 -2 -19
-9 10 -5 18 -16 40 -26 47 -10 7 -13 13 -6 13 6 0 18 -10 26 -22z m-677 -55
c-3 -10 -5 -4 -5 12 0 17 2 24 5 18 2 -7 2 -21 0 -30z m-560 5 c-3 -8 -6 -5
-6 6 -1 11 2 17 5 13 3 -3 4 -12 1 -19z m140 0 c-3 -8 -6 -5 -6 6 -1 11 2 17
5 13 3 -3 4 -12 1 -19z m970 -5 c-4 -3 -7 0 -7 7 0 7 3 10 7 7 3 -4 3 -10 0
-14z m-526 -40 c13 -16 12 -17 -3 -4 -10 7 -18 15 -18 17 0 8 8 3 21 -13z
m649 2 c-7 -8 -17 -15 -23 -15 -6 0 -2 7 9 15 25 19 30 19 14 0z m-85 -13 c-3
-3 -11 0 -18 7 -9 10 -8 11 6 5 10 -3 15 -9 12 -12z m-1068 -8 c-3 -3 -12 -4
-19 -1 -8 3 -5 6 6 6 11 1 17 -2 13 -5z m556 -1 c-7 -2 -19 -2 -25 0 -7 3 -2
5 12 5 14 0 19 -2 13 -5z m554 1 c-3 -3 -12 -4 -19 -1 -8 3 -5 6 6 6 11 1 17
-2 13 -5z"/>
<path d="M2424 1886 c-3 -7 -4 -42 -2 -77 3 -57 5 -64 25 -67 51 -7 83 84 47
136 -17 24 -62 30 -70 8z"/>
<path d="M547 1652 c-21 -23 -22 -56 -1 -76 14 -14 115 -16 959 -16 844 0 945
2 959 16 21 21 20 57 -2 77 -17 16 -98 17 -959 17 -898 0 -941 -1 -956 -18z"/>
<path d="M1020 1523 c0 -14 142 -452 427 -1316 31 -93 59 -165 63 -160 4 4 49
138 99 298 91 284 174 544 305 956 36 113 66 214 66 223 0 15 -41 16 -480 16
-441 0 -480 -1 -480 -17z"/>
</g>
</svg>
