<?xml version="1.0" standalone="no"?>
<!DOCTYPE svg PUBLIC "-//W3C//DTD SVG 20010904//EN"
 "http://www.w3.org/TR/2001/REC-SVG-20010904/DTD/svg10.dtd">
<svg version="1.0" xmlns="http://www.w3.org/2000/svg"
 width="300.000000pt" height="381.000000pt" viewBox="0 0 300.000000 381.000000"
 preserveAspectRatio="xMidYMid meet">
<metadata>
Created by potrace 1.10, written by Peter Selinger 2001-2011
</metadata>
<g transform="translate(0.000000,381.000000) scale(0.100000,-0.100000)"
fill="#000000" stroke="none">
<path d="M14 3802 c3 -5 118 -82 256 -173 138 -90 330 -216 428 -281 l177
-116 5 143 c3 79 8 146 10 148 3 2 92 14 198 27 147 17 197 19 205 11 16 -16
23 -985 8 -979 -6 1 -59 62 -118 134 -364 441 -413 497 -413 467 0 -25 -11
-175 -41 -563 -67 -884 -64 -815 -40 -1002 12 -90 26 -192 31 -228 5 -36 16
-119 25 -185 9 -66 20 -154 26 -195 5 -41 19 -147 30 -235 11 -88 26 -209 34
-270 8 -60 23 -186 35 -280 12 -93 24 -181 27 -195 6 -25 6 -25 13 5 4 17 75
298 158 625 82 327 159 638 171 690 12 52 25 106 28 120 6 24 5 24 -13 8 -34
-30 -92 -48 -154 -48 -70 0 -105 15 -148 64 -28 32 -37 54 -55 133 -3 12 -1
93 3 180 5 87 14 286 20 443 6 157 13 300 16 317 l5 33 77 -87 c42 -47 125
-140 185 -205 l107 -118 0 -354 c0 -278 3 -367 15 -413 17 -69 79 -327 129
-538 20 -82 39 -161 42 -175 7 -25 37 86 154 573 l50 207 0 353 0 352 128 140
c70 77 152 169 183 204 l56 64 7 -124 c9 -166 25 -498 33 -690 7 -180 -3 -237
-49 -294 -18 -20 -46 -44 -64 -51 -53 -22 -141 -18 -201 11 -29 13 -53 22 -53
20 0 -2 36 -147 80 -322 43 -175 118 -475 165 -668 47 -192 92 -376 100 -409
8 -32 16 -60 18 -63 5 -4 12 41 32 202 8 61 21 162 30 225 9 63 27 201 40 305
13 105 29 226 35 270 19 139 40 306 55 425 8 63 20 153 27 200 15 101 15 224
-1 415 -6 77 -18 228 -26 335 -8 107 -22 287 -30 400 -9 113 -20 254 -23 313
l-7 108 -121 -148 c-193 -235 -334 -404 -375 -453 l-39 -45 2 492 c2 368 6
495 15 504 9 9 55 7 207 -11 l195 -23 3 -148 3 -147 95 61 c52 34 212 138 355
232 143 94 297 195 343 224 45 30 82 55 82 57 0 2 -673 4 -1496 4 -822 0
-1493 -4 -1490 -8z"/>
</g>
</svg>
