<?xml version="1.0" standalone="no"?>
<!DOCTYPE svg PUBLIC "-//W3C//DTD SVG 20010904//EN"
 "http://www.w3.org/TR/2001/REC-SVG-20010904/DTD/svg10.dtd">
<svg version="1.0" xmlns="http://www.w3.org/2000/svg"
 width="300.000000pt" height="685.000000pt" viewBox="0 0 300.000000 685.000000"
 preserveAspectRatio="xMidYMid meet">
<metadata>
Created by potrace 1.10, written by Peter Selinger 2001-2011
</metadata>
<g transform="translate(0.000000,685.000000) scale(0.100000,-0.100000)"
fill="#000000" stroke="none">
<path d="M1220 6839 c-110 -14 -202 -40 -284 -81 -81 -41 -136 -76 -136 -88 0
-4 23 -10 50 -13 71 -9 158 -55 197 -106 18 -23 44 -78 58 -122 23 -72 26
-107 36 -337 5 -141 11 -261 12 -265 2 -5 32 11 67 36 163 111 231 119 328 37
65 -54 93 -52 103 5 4 22 12 132 18 245 16 283 31 333 132 424 50 45 138 86
184 86 42 0 36 16 -18 52 -166 110 -472 162 -747 127z"/>
<path d="M1320 5881 c-44 -14 -103 -48 -182 -105 -122 -88 -185 -115 -353
-151 -100 -22 -167 -54 -240 -114 -138 -114 -178 -257 -114 -403 35 -80 34
-86 -26 -157 -44 -54 -105 -178 -136 -281 -20 -62 -24 -98 -24 -205 0 -122 2
-134 29 -192 35 -78 57 -98 142 -132 l69 -28 51 -92 c66 -121 98 -153 181
-184 99 -37 141 -47 205 -47 71 0 89 -19 82 -89 -14 -124 98 -169 360 -142
118 13 235 39 287 67 20 10 38 35 58 79 33 72 45 78 99 45 73 -45 98 -32 277
150 83 83 175 167 205 187 109 71 120 95 79 175 -33 65 -19 90 99 181 99 76
115 145 75 335 -24 112 -27 149 -28 322 0 193 0 195 -26 235 -14 22 -48 60
-74 84 l-48 44 -110 -6 c-64 -3 -118 -2 -129 4 -22 12 -42 50 -57 113 -38 155
-144 260 -291 286 -59 11 -70 10 -118 -9 -73 -29 -107 -27 -152 9 -34 27 -45
30 -101 29 -35 0 -75 -4 -89 -8z m113 -142 l59 -31 76 18 c132 29 165 29 224
1 60 -29 74 -40 106 -81 18 -23 22 -42 22 -100 0 -89 18 -130 94 -216 73 -83
116 -168 116 -228 0 -25 -12 -79 -26 -120 -22 -66 -24 -79 -14 -120 25 -102
25 -101 -11 -139 -44 -45 -70 -58 -307 -153 -229 -91 -299 -111 -396 -113 -62
-1 -85 5 -186 45 -129 52 -161 61 -185 52 -21 -9 -45 -56 -45 -91 0 -39 20
-65 80 -103 30 -19 70 -59 100 -101 61 -84 79 -95 155 -104 33 -4 90 -20 127
-36 102 -44 109 -42 182 58 43 58 48 63 95 69 77 10 98 36 107 134 3 44 13 88
20 97 11 15 13 -1 14 -114 0 -123 -1 -133 -21 -147 -14 -9 -33 -12 -55 -9 -58
10 -111 -22 -155 -92 -21 -33 -43 -66 -49 -73 -20 -23 -73 -13 -129 24 -29 20
-90 48 -135 64 -118 40 -138 52 -179 114 -20 30 -63 74 -94 97 -32 24 -63 50
-70 58 -9 12 -11 55 -6 161 5 125 2 161 -17 265 -13 66 -31 161 -40 210 -13
66 -19 85 -25 70 -27 -67 -49 -126 -62 -165 -8 -25 -35 -90 -60 -144 -69 -152
-59 -232 36 -285 59 -32 72 -68 72 -190 0 -101 11 -165 35 -192 8 -9 41 -26
73 -38 32 -12 64 -28 71 -36 17 -21 -114 17 -149 42 -42 32 -51 60 -51 166 0
126 -11 151 -98 221 -38 31 -75 70 -82 86 -20 49 -8 120 31 176 48 70 83 147
114 255 15 52 37 123 50 159 12 36 26 97 29 135 14 139 42 202 130 294 108
113 229 180 326 181 31 0 63 -9 103 -31z"/>
<path d="M1212 5714 c-142 -71 -255 -239 -287 -427 -9 -54 5 -157 21 -157 19
0 68 49 99 100 75 124 233 220 362 220 51 0 80 -12 153 -62 35 -24 91 -48 154
-67 115 -34 154 -65 163 -127 8 -65 -12 -119 -59 -156 -107 -85 -108 -87 -108
-180 0 -95 -2 -99 -91 -195 -70 -76 -86 -101 -66 -109 31 -11 124 20 396 134
36 15 73 39 84 54 19 25 19 32 8 81 -11 52 -10 60 24 166 50 156 43 183 -90
351 -76 96 -96 132 -120 215 -44 154 -124 193 -297 145 -96 -27 -117 -25 -164
10 -51 39 -110 40 -182 4z"/>
<path d="M1275 5389 c-78 -40 -263 -227 -301 -306 -24 -49 -26 -62 -21 -133 3
-43 8 -84 12 -90 4 -7 17 9 31 39 48 105 163 196 303 241 80 25 132 25 213 0
64 -20 112 -58 151 -122 26 -41 57 -36 105 16 55 59 72 96 72 154 0 68 -25 89
-126 107 -44 8 -85 14 -91 15 -7 0 -33 20 -58 43 -79 76 -185 89 -290 36z"/>
<path d="M1336 5114 c-30 -30 -14 -95 36 -141 13 -12 53 -31 89 -43 67 -20 89
-43 89 -91 0 -37 -47 -114 -111 -181 -50 -52 -74 -69 -109 -78 -79 -21 -92
-28 -88 -53 5 -38 51 -52 135 -40 40 6 80 16 88 23 8 6 28 37 45 67 18 31 51
76 75 102 78 85 95 117 95 185 0 44 -7 75 -24 111 -32 66 -51 87 -110 124 -44
27 -59 31 -122 31 -53 0 -77 -4 -88 -16z"/>
<path d="M1164 5032 c-137 -102 -184 -179 -192 -314 -6 -113 7 -138 73 -138
29 0 63 -9 94 -25 73 -38 111 -18 111 58 0 31 0 31 16 9 21 -30 53 -28 100 6
50 37 101 126 84 147 -34 40 -143 -9 -177 -80 -9 -19 -19 -32 -23 -30 -4 2
-13 35 -20 74 -13 69 -13 70 24 185 59 182 40 205 -90 108z"/>
<path d="M1290 4958 c-42 -70 -51 -208 -13 -208 8 0 28 11 45 25 20 17 42 25
68 25 51 0 83 15 103 50 20 33 13 42 -52 65 -24 8 -59 28 -77 45 -19 16 -39
30 -44 30 -6 0 -19 -15 -30 -32z"/>
<path d="M2374 4036 c-69 -22 -152 -75 -191 -122 -40 -49 -36 -64 18 -64 43 0
139 -38 204 -80 33 -22 87 -72 121 -112 62 -74 170 -238 157 -237 -5 0 -44 45
-88 99 -147 181 -270 262 -421 275 -97 8 -112 2 -211 -85 -85 -75 -119 -88
-170 -63 l-37 18 -31 -30 c-18 -16 -44 -40 -59 -53 -28 -22 -28 -23 -24 -123
3 -115 5 -117 94 -145 31 -10 73 -33 98 -56 67 -58 106 -68 270 -68 146 0 144
0 341 -59 39 -12 138 -28 220 -36 163 -16 215 -29 215 -51 0 -37 77 13 107 69
25 49 12 145 -34 252 -22 50 -49 135 -62 190 -41 185 -40 183 -110 258 -36 38
-82 97 -101 131 -46 80 -94 105 -195 105 -38 0 -89 -6 -111 -13z"/>
<path d="M363 3860 c-12 -5 -39 -28 -60 -52 -21 -23 -63 -68 -94 -98 -77 -75
-83 -88 -69 -157 l12 -56 -50 -46 c-66 -62 -92 -131 -99 -267 -5 -79 -2 -118
12 -170 24 -96 87 -220 139 -279 l45 -50 1 52 c0 68 31 105 123 149 100 48
154 52 275 20 54 -14 109 -26 121 -26 12 0 48 14 81 30 35 18 75 30 97 30 72
0 152 79 172 171 17 75 30 100 77 151 l44 47 0 78 c0 43 -4 84 -8 91 -5 7 -26
15 -48 18 -73 10 -84 15 -124 50 -25 23 -40 45 -40 60 0 45 -30 102 -61 114
-44 19 -157 8 -215 -21 -58 -27 -143 -111 -195 -194 -44 -68 -51 -53 -15 30
32 71 108 151 185 195 34 19 60 39 58 44 -2 6 -23 13 -48 16 -24 3 -75 21
-113 40 -72 36 -160 49 -203 30z"/>
<path d="M1527 3530 c-15 -5 -74 -11 -130 -15 -56 -3 -113 -8 -126 -11 l-24
-5 7 -147 c9 -178 21 -445 41 -892 18 -394 41 -890 55 -1185 5 -115 12 -257
15 -315 4 -99 13 -278 35 -710 5 -102 9 -200 10 -219 0 -19 2 -32 5 -29 3 3
12 175 20 384 9 208 20 469 25 579 5 110 13 313 19 450 6 138 13 302 16 365 3
63 12 275 20 470 14 333 20 452 45 985 12 257 12 305 3 304 -5 0 -21 -4 -36
-9z"/>
</g>
</svg>
