<?xml version="1.0" standalone="no"?>
<!DOCTYPE svg PUBLIC "-//W3C//DTD SVG 20010904//EN"
 "http://www.w3.org/TR/2001/REC-SVG-20010904/DTD/svg10.dtd">
<svg version="1.0" xmlns="http://www.w3.org/2000/svg"
 width="300.000000pt" height="406.000000pt" viewBox="0 0 300.000000 406.000000"
 preserveAspectRatio="xMidYMid meet">
<metadata>
Created by potrace 1.10, written by Peter Selinger 2001-2011
</metadata>
<g transform="translate(0.000000,406.000000) scale(0.100000,-0.100000)"
fill="#000000" stroke="none">
<path d="M613 4048 c-6 -7 -13 -45 -17 -84 l-6 -71 -98 -99 c-112 -112 -131
-138 -145 -197 -23 -100 -4 -193 62 -302 52 -87 221 -142 314 -101 18 7 55 22
82 32 42 16 57 30 93 83 43 65 50 98 22 111 -20 11 -140 34 -167 33 -20 -1
-23 4 -23 35 0 19 16 84 35 144 34 105 35 111 25 191 -5 45 -14 97 -19 115
-13 44 -49 100 -71 112 -26 14 -76 12 -87 -2z m85 -70 c20 -33 47 -117 40
-124 -2 -2 -27 4 -54 13 l-50 15 10 64 c11 73 24 80 54 32z m7 -183 c25 -15
45 -33 45 -40 0 -27 -20 -65 -34 -65 -16 0 -188 49 -195 56 -3 2 13 23 35 45
33 35 44 40 71 35 18 -2 52 -17 78 -31z m-49 -145 l61 -12 -10 -35 c-15 -49
-42 -57 -152 -46 -95 10 -148 28 -153 53 -1 9 13 34 33 57 l36 42 62 -24 c34
-13 90 -28 123 -35z m-86 -145 c130 -2 140 -9 95 -63 -38 -46 -119 -82 -182
-82 -51 0 -53 1 -71 38 -11 20 -22 60 -26 89 l-7 52 38 -16 c27 -12 71 -17
153 -18z m308 -121 c17 -5 -36 -84 -72 -108 -25 -16 -26 -16 -26 8 0 35 10 56
26 56 22 0 16 27 -8 45 -22 15 -21 16 22 10 25 -4 51 -8 58 -11z m-148 -15
c13 -22 5 -69 -17 -113 -14 -27 -16 -28 -82 -24 -51 3 -78 10 -116 33 l-50 29
62 13 c61 12 119 37 158 67 26 20 32 20 45 -5z"/>
<path d="M1395 3365 c-342 -79 -492 -117 -528 -133 -97 -43 -374 -195 -400
-220 -32 -30 -87 -133 -124 -232 -13 -36 -42 -98 -64 -138 -60 -110 -70 -144
-80 -292 -5 -74 -12 -162 -15 -195 -8 -83 5 -94 70 -60 26 14 54 25 62 25 8 0
34 18 58 40 24 22 49 40 55 40 6 0 43 29 81 65 38 36 73 65 79 65 5 0 11 10
15 23 3 13 21 41 41 62 34 39 35 39 24 10 -6 -16 -18 -39 -28 -50 -9 -11 -29
-38 -43 -60 -65 -101 -189 -203 -319 -260 -65 -28 -113 -56 -129 -75 -50 -59
-69 -87 -76 -116 -4 -16 -20 -58 -36 -94 -31 -69 -47 -184 -34 -252 7 -39 98
-188 158 -261 22 -26 52 -75 68 -110 19 -42 37 -67 54 -75 14 -6 26 -16 26
-22 0 -14 61 -50 86 -50 27 0 57 -33 81 -91 13 -29 44 -66 87 -105 36 -32 69
-67 72 -76 17 -53 44 -255 44 -329 0 -105 20 -167 69 -219 33 -34 42 -38 106
-45 87 -9 101 -15 149 -59 35 -34 42 -36 84 -31 44 5 102 37 135 73 9 10 31
64 51 122 69 208 78 227 121 260 22 16 58 43 79 60 46 35 73 37 118 10 18 -11
49 -20 69 -20 29 0 50 -11 100 -51 77 -61 95 -69 163 -69 58 0 70 7 146 83 55
55 85 64 155 47 65 -15 113 -2 149 41 26 30 66 127 66 158 0 58 210 239 365
316 76 37 98 54 140 107 l50 62 0 161 0 160 -52 92 c-29 50 -70 133 -92 185
-46 108 -69 129 -163 148 -69 13 -127 39 -173 78 -40 33 -122 145 -151 207
-30 62 -33 108 -3 53 10 -21 29 -42 40 -48 11 -7 27 -26 34 -44 14 -34 83
-101 147 -144 48 -31 198 -68 209 -51 12 20 -2 408 -17 477 -8 35 -14 78 -14
95 0 18 -11 55 -24 83 -13 28 -27 80 -31 115 -9 86 -33 135 -91 190 -50 47
-223 169 -240 169 -5 0 -33 18 -63 40 -40 30 -87 51 -193 85 -153 49 -166 51
-408 66 -91 5 -185 12 -210 14 -25 2 -72 -2 -105 -10z m665 -272 c0 -5 -12
-16 -25 -26 -24 -17 -26 -17 -50 0 -36 26 -31 33 25 33 28 0 50 -3 50 -7z
m129 -39 c44 -26 91 -103 98 -162 3 -29 4 -52 1 -52 -3 0 -23 18 -46 39 -23
22 -63 46 -90 55 -33 11 -52 24 -55 36 -5 20 -37 28 -37 10 0 -5 -4 -10 -10
-10 -18 0 -10 36 13 58 23 21 62 40 85 41 8 1 26 -6 41 -15z m-487 -104 l38
-11 -5 -72 c-3 -40 -7 -105 -9 -145 -3 -41 -7 -77 -11 -80 -23 -23 -119 141
-136 233 -10 53 -9 60 7 72 21 16 66 17 116 3z m-171 -97 c13 -60 38 -118 70
-165 26 -36 24 -42 -13 -53 -42 -13 -38 -29 7 -33 27 -2 35 -8 35 -23 0 -15
-7 -19 -30 -19 -111 0 -211 164 -170 277 11 29 57 73 77 73 6 0 17 -26 24 -57z
m306 27 c21 -11 43 -20 50 -20 17 0 18 -152 2 -216 -6 -24 -12 -44 -13 -44
-40 10 -110 42 -109 49 2 6 8 65 15 131 6 66 13 120 15 120 2 0 20 -9 40 -20z
m312 -10 c44 -22 101 -86 101 -113 0 -43 -89 -167 -119 -167 -7 0 -10 4 -7 9
11 17 -15 128 -46 199 -26 61 -29 75 -17 83 22 14 46 11 88 -11z m-130 -80
c43 -96 55 -149 47 -193 -9 -47 -23 -53 -92 -38 -44 10 -54 16 -50 29 17 56
26 116 26 184 0 72 4 84 31 87 4 1 20 -31 38 -69z m276 -340 c3 -5 4 -10 1
-10 -3 0 -8 5 -11 10 -3 6 -4 10 -1 10 3 0 8 -4 11 -10z m-1441 -202 c21 -37
45 -118 35 -118 -2 0 -24 6 -49 14 -36 10 -45 18 -44 35 3 102 5 111 19 111 8
0 25 -19 39 -42z m-1 -176 c26 -14 47 -32 47 -41 0 -35 -13 -61 -30 -61 -20 0
-192 48 -199 56 -3 3 15 22 39 44 51 44 64 44 143 2z m-148 -117 c39 -13 89
-27 113 -31 44 -7 48 -15 36 -61 -5 -17 -16 -23 -52 -28 -84 -11 -239 20 -249
51 -3 10 63 94 75 94 4 0 39 -11 77 -25z m-121 -160 c30 -9 90 -15 153 -15 93
0 103 -2 103 -18 0 -45 -109 -114 -201 -127 -44 -7 -47 -6 -66 27 -11 19 -22
52 -25 73 -4 22 -9 48 -13 58 -9 20 -12 20 49 2z m1902 -57 l100 2 36 -38 c50
-52 85 -157 77 -232 -3 -30 -1 -72 4 -93 15 -58 0 -78 -91 -125 -92 -48 -102
-50 -102 -20 0 37 -48 104 -96 137 -104 68 -260 100 -336 68 -50 -21 -50 -49
2 -118 42 -56 50 -83 26 -92 -19 -8 -40 19 -61 78 -10 28 -22 55 -25 60 -4 6
-10 29 -13 52 -6 52 -73 162 -107 176 -14 6 -26 12 -28 13 -13 8 36 68 72 89
74 43 153 56 306 48 74 -3 180 -5 236 -5z m-1963 -170 c30 -52 104 -116 156
-134 51 -18 178 -17 235 2 56 19 146 98 183 161 24 42 26 43 47 28 11 -8 31
-19 42 -24 26 -11 68 -67 60 -80 -3 -5 -14 -7 -24 -5 -12 4 -28 -10 -53 -43
-31 -41 -37 -58 -43 -118 -15 -172 -23 -203 -62 -272 -22 -37 -46 -81 -54 -98
-9 -16 -23 -31 -32 -33 -15 -3 -118 36 -193 74 -17 8 -42 34 -57 58 -38 63
-104 113 -169 127 -44 9 -62 20 -97 58 -24 25 -59 62 -77 82 -53 56 -78 105
-70 137 3 15 30 63 59 107 29 44 61 93 71 110 l18 29 17 -60 c9 -34 28 -81 43
-106z m471 96 c41 -7 41 -6 21 -43 -14 -28 -74 -85 -81 -78 -2 2 -1 20 3 40 4
27 11 37 24 37 28 0 23 27 -8 45 -16 9 -20 14 -11 11 9 -3 33 -8 52 -12z
m-110 -27 c14 -38 -18 -115 -52 -128 -35 -13 -84 -4 -150 27 -52 26 -60 44
-18 44 44 0 127 31 159 60 37 34 48 33 61 -3z m1319 -263 c3 -4 -5 -16 -19
-26 -24 -19 -26 -19 -44 -3 -11 10 -17 22 -14 26 6 10 68 12 77 3z m-637 -66
l24 -37 -39 -56 c-89 -127 -75 -280 36 -387 46 -44 135 -88 181 -88 31 0 33
-2 30 -32 -3 -29 -7 -33 -37 -36 -24 -3 -40 3 -60 21 -14 13 -51 42 -82 65
-33 24 -68 60 -84 88 -26 44 -29 46 -41 29 -8 -10 -14 -27 -14 -37 0 -9 -13
-32 -28 -50 -16 -18 -41 -54 -56 -81 -34 -57 -60 -77 -103 -77 l-33 0 0 113
c0 61 5 128 9 147 17 63 52 164 76 215 13 28 31 75 40 105 9 30 28 75 43 100
l26 45 11 -37 c15 -55 32 -68 45 -34 5 15 10 38 10 50 0 27 13 43 19 24 2 -7
15 -30 27 -50z m798 2 c43 -38 76 -105 76 -154 l0 -38 -46 41 c-25 22 -62 45
-82 51 -21 7 -47 24 -59 38 -17 21 -24 23 -36 14 -19 -16 -31 10 -14 31 45 55
110 62 161 17z m-495 -87 l23 -6 -7 -121 c-11 -206 -19 -216 -84 -106 -52 87
-71 140 -71 196 l0 44 58 0 c31 0 68 -3 81 -7z m-190 -70 c6 -21 11 -46 11
-55 0 -9 18 -52 40 -94 23 -42 40 -77 38 -78 -2 -1 -16 -7 -31 -14 -36 -15
-30 -36 10 -40 46 -5 52 -32 7 -32 -45 0 -83 20 -121 64 -41 46 -56 96 -51
169 4 54 8 63 38 89 19 15 38 28 42 28 4 0 12 -17 17 -37z m339 -7 l32 -11 0
-90 c0 -99 -14 -169 -33 -161 -7 3 -32 11 -55 18 -43 12 -44 14 -38 48 3 19 8
67 11 105 9 106 13 118 33 109 9 -4 32 -12 50 -18z m304 -12 c21 -13 49 -42
64 -63 l25 -39 -21 -41 c-21 -43 -86 -121 -100 -121 -4 0 -10 28 -14 63 -4 40
-19 89 -42 137 -33 70 -34 75 -17 88 22 16 56 9 105 -24z m-146 -79 c38 -86
49 -138 40 -190 -6 -30 -11 -35 -34 -35 -15 0 -44 5 -66 11 -36 10 -38 12 -32
42 17 79 26 146 26 195 0 78 23 70 66 -23z"/>
</g>
</svg>
